<?xml version="1.0" encoding="UTF-8"?>
<svg id="Layer_2" data-name="Layer 2" xmlns="http://www.w3.org/2000/svg" viewBox="0 0 264.12 255.6">
  <g id="Layer_1-2" data-name="Layer 1">
    <path d="M261.73,165.83c-7.16-3.19-19.52-7.95-32.94-9.76-.48-.07-.85-.47-.85-.96.03-14.93-2.44-39.29-9.7-52.7-.93-1.95-.82-4.23.26-6.1,2.98-6.25,16.28-26.89,4.83-23.66-3.69,1.46-8.59,3.56-13.89,6.29-2.72,1.4-6.03.7-8-1.63-24.97-23.38-35.73-57.07-39.69-75.22-1.08-2.92-5.28-2.71-6.06.31-.71,3.42-.03,24.86,6.6,50.3,7.69,24.8,33.44,49.65,33.62,89.17,1.1,18.53-23.68,12.57-34.81,13.47-7.08,0-12.92-5.53-13.3-12.6-.57-10.54-1.49-21.05-2.8-31.53h0c-.47-9.59-6.14-25.45-12.91-28.22-6.79,2.78-12.44,18.59-12.92,28.22h0c-1.3,10.49-2.23,21-2.8,31.53-.38,7.07-6.22,12.6-13.3,12.6-11.12-.9-35.9,5.08-34.81-13.47,4.36-61.92,44.07-73.02,40.23-139.47-1.39-3.89-6.05-2.7-6.61,1.24-2.69,16.53-16.09,52.56-39.14,73.67-1.97,2.34-5.29,3.03-8,1.63-5.3-2.73-10.19-4.83-13.89-6.29-11.52-3.13,1.9,17.4,4.83,23.66,1.08,1.87,1.19,4.15.26,6.1-7.27,13.39-9.73,37.79-9.7,52.7,0,.49-.36.9-.85.96-13.42,1.82-25.78,6.57-32.94,9.76-11.89,6.44,22.93,13.97,31.21,15.65,3.88.63,7.22,3.07,9,6.57,2.34,4.62,5.14,8.65,8.06,13.28,13.32,16.52,26.74,20.21,26.74,20.21,0,0,8.8,1.34,10.22-1.43,1.35-2.63.18-4.31-1.55-5.71-1.12-.9-12.45-11.59-13.7-24.43-.64-6.25,2.99-7.44,7.28-7.44,11.27.95,35.91-5.06,36.76,12.64,1.91,18.89.36,48.58,15.59,60.42,6.63-4.12,12.39-18.18,12.96-29.37,1.21-10.37,2.11-20.72,2.69-31.05.4-7.09,6.26-12.64,13.37-12.64h23.39c19.76.25-5.65,33.5-6.42,31.86-1.73,1.4-2.9,3.07-1.55,5.71,1.42,2.77,10.22,1.43,10.22,1.43,0,0,13.41-3.69,26.74-20.21,2.92-4.63,5.72-8.66,8.06-13.28,1.78-3.5,5.12-5.94,9-6.57,8.85-1.81,42.81-9.15,31.21-15.65Z"/>
  </g>
</svg>