<svg xmlns="http://www.w3.org/2000/svg" viewBox="0 0 451 451">
  <g fill="#E3BB63"><path d="M0 0 C0.962 -0.005 1.923 -0.01 2.914 -0.016 C3.912 -0 4.91 0.015 5.938 0.031 C6.935 0.016 7.933 0 8.961 -0.016 C16.238 0.023 16.238 0.023 19.562 2.438 C22.242 6.517 22.075 9.869 22.058 14.63 C22.058 15.054 22.058 15.054 22.06 17.197 C22.062 20.051 22.056 22.906 22.051 25.76 C22.051 27.8 22.051 29.84 22.051 31.879 C22.052 37.431 22.046 42.982 22.039 48.533 C22.033 54.33 22.032 60.126 22.031 65.922 C22.028 76.905 22.02 87.887 22.01 98.869 C21.996 113.706 21.991 128.542 21.985 143.378 C21.976 166.762 21.956 190.147 21.938 213.531 C80.347 213.531 138.757 213.531 198.938 213.531 C198.879 198.791 198.821 184.05 198.762 168.863 C198.736 159.544 198.712 150.224 198.693 140.904 C198.664 126.101 198.629 111.297 198.56 96.494 C198.511 85.714 198.478 74.934 198.467 64.153 C198.461 58.444 198.445 52.735 198.409 47.025 C198.375 41.653 198.364 36.281 198.372 30.909 C198.371 28.936 198.361 26.962 198.341 24.989 C198.317 22.297 198.323 19.607 198.336 16.915 C198.322 16.132 198.307 15.349 198.292 14.542 C198.347 10.516 198.776 8.733 201.323 5.547 C204.164 3.357 205.353 2.899 208.879 2.902 C209.336 2.901 209.336 2.901 211.646 2.896 C212.588 2.92 213.53 2.944 214.5 2.969 C214.973 2.963 214.973 2.963 217.365 2.936 C224.228 3.008 224.228 3.008 227.527 5.441 C230.248 9.473 230.075 12.78 230.058 17.516 C230.058 17.934 230.058 17.934 230.06 20.046 C230.062 22.859 230.056 25.672 230.051 28.485 C230.051 30.495 230.051 32.505 230.051 34.515 C230.052 39.986 230.046 45.457 230.039 50.928 C230.033 56.64 230.032 62.352 230.031 68.064 C230.028 78.887 230.02 89.71 230.01 100.533 C229.998 112.852 229.993 125.171 229.988 137.49 C229.977 162.837 229.96 188.184 229.938 213.531 C231.167 213.522 232.396 213.513 233.662 213.504 C245.242 213.423 256.822 213.363 268.402 213.324 C274.356 213.303 280.309 213.275 286.263 213.229 C292.008 213.186 297.752 213.162 303.497 213.152 C305.69 213.144 307.882 213.13 310.074 213.108 C313.144 213.079 316.212 213.075 319.282 213.077 C320.19 213.063 321.097 213.048 322.033 213.034 C326.161 213.061 328.377 213.192 331.978 215.372 C335.511 219.265 335.152 223.421 335.188 228.406 C335.198 228.76 335.198 228.76 335.25 230.551 C335.284 235.101 334.697 237.9 331.938 241.531 C329.938 243.531 329.938 243.531 328.13 243.777 C327.394 243.776 326.658 243.774 325.901 243.772 C325.056 243.775 324.212 243.777 323.343 243.78 C322.415 243.773 321.487 243.766 320.531 243.758 C319.555 243.759 318.579 243.759 317.574 243.759 C314.338 243.758 311.103 243.742 307.867 243.727 C305.628 243.723 303.389 243.72 301.15 243.718 C295.248 243.71 289.346 243.691 283.444 243.669 C277.425 243.648 271.406 243.639 265.387 243.629 C253.57 243.607 241.754 243.573 229.938 243.531 C229.982 249.454 230.052 255.376 230.145 261.299 C230.173 263.309 230.194 265.319 230.208 267.33 C230.416 295.124 230.416 295.124 240.938 305.531 C257.446 319.11 281.337 316.06 301.322 315.958 C305.615 315.936 309.906 315.934 314.199 315.96 C316.191 315.965 318.184 315.94 320.176 315.915 C330.17 315.971 330.17 315.971 333.255 318.774 C334.964 321.574 335.569 322.981 335.566 326.219 C335.568 327.082 335.57 327.946 335.572 328.836 C335.548 329.725 335.525 330.615 335.5 331.531 C335.511 332.421 335.522 333.31 335.533 334.227 C335.486 338.451 335.307 340.919 333.09 344.594 C329.567 347.765 326.534 347.664 321.976 347.692 C320.746 347.702 319.517 347.712 318.25 347.721 C316.902 347.726 315.555 347.731 314.207 347.734 C313.524 347.737 312.84 347.74 312.136 347.743 C308.506 347.758 304.876 347.767 301.246 347.771 C297.541 347.777 293.835 347.801 290.13 347.829 C287.246 347.848 284.362 347.853 281.478 347.855 C279.463 347.859 277.447 347.878 275.431 347.897 C253.626 347.845 233.402 342.015 217.258 326.883 C195.01 304.335 198.629 275.67 197.938 244.531 C139.857 244.201 81.777 243.871 21.938 243.531 C21.938 255.411 21.938 267.291 21.938 279.531 C19.012 300.012 13.98 315.007 -2.062 328.531 C-18.061 340.324 -35.174 343.849 -54.551 343.867 C-56.143 343.874 -57.734 343.88 -59.326 343.887 C-62.645 343.899 -65.964 343.903 -69.283 343.902 C-73.535 343.902 -77.786 343.929 -82.037 343.963 C-85.317 343.986 -88.597 343.99 -91.876 343.989 C-93.444 343.991 -95.013 344 -96.581 344.015 C-98.768 344.035 -100.954 344.029 -103.142 344.017 C-103.763 344.019 -103.763 344.019 -106.909 344.026 C-110.64 343.441 -111.813 342.509 -114.062 339.531 C-114.867 335.923 -114.666 332.282 -114.625 328.594 C-114.649 327.604 -114.673 326.615 -114.697 325.596 C-114.695 324.637 -114.693 323.679 -114.691 322.691 C-114.692 321.821 -114.693 320.951 -114.694 320.055 C-113.776 316.385 -111.943 314.927 -109.062 312.531 C-106.043 311.919 -106.043 311.919 -102.643 311.935 C-101.364 311.929 -100.085 311.922 -98.767 311.915 C-98.087 311.923 -97.408 311.931 -96.708 311.94 C-94.561 311.965 -92.416 311.96 -90.269 311.948 C-85.7 311.927 -81.132 311.947 -76.562 311.969 C-71.29 311.99 -66.018 311.994 -60.745 311.968 C-58.653 311.965 -56.562 311.986 -54.47 312.009 C-41.467 311.973 -27.757 309.242 -18.219 299.684 C-11.356 291.223 -9.888 281.133 -9.965 270.508 C-9.966 269.762 -9.968 269.015 -9.969 268.247 C-9.975 265.883 -9.987 263.52 -10 261.156 C-10.005 259.546 -10.01 257.935 -10.014 256.324 C-10.025 252.393 -10.042 248.462 -10.062 244.531 C-11.304 244.53 -12.546 244.528 -13.825 244.527 C-25.523 244.51 -37.221 244.468 -48.919 244.399 C-54.933 244.365 -60.947 244.34 -66.961 244.336 C-72.764 244.331 -78.567 244.303 -84.37 244.258 C-86.585 244.245 -88.799 244.241 -91.014 244.245 C-94.115 244.25 -97.214 244.224 -100.315 244.191 C-101.232 244.199 -102.149 244.208 -103.094 244.217 C-107.604 244.136 -109.473 243.992 -113.132 241.13 C-115.124 238.448 -115.695 237.338 -115.691 234.062 C-115.693 233.244 -115.695 232.425 -115.697 231.582 C-115.685 231.161 -115.685 231.161 -115.625 229.031 C-115.636 228.189 -115.647 227.348 -115.658 226.48 C-115.609 222.331 -115.407 220.078 -113.152 216.5 C-110.327 213.839 -108.833 213.406 -105.064 213.373 C-104.646 213.368 -104.646 213.368 -102.531 213.343 C-102.072 213.34 -102.072 213.34 -99.748 213.326 C-98.782 213.316 -97.816 213.306 -96.821 213.296 C-93.617 213.264 -90.414 213.24 -87.211 213.215 C-84.994 213.194 -82.777 213.173 -80.561 213.152 C-74.718 213.097 -68.875 213.047 -63.033 212.999 C-57.074 212.949 -51.115 212.893 -45.156 212.838 C-33.458 212.73 -21.76 212.629 -10.062 212.531 C-10.061 211.463 -10.06 210.395 -10.058 209.294 C-10.021 183.322 -9.962 157.351 -9.879 131.379 C-9.839 118.819 -9.806 106.26 -9.792 93.7 C-9.779 82.756 -9.752 71.811 -9.708 60.866 C-9.685 55.069 -9.67 49.272 -9.671 43.475 C-9.671 38.022 -9.654 32.568 -9.621 27.115 C-9.613 25.111 -9.611 23.106 -9.617 21.102 C-9.623 18.371 -9.606 15.64 -9.581 12.909 C-9.589 12.111 -9.597 11.313 -9.605 10.492 C-9.549 6.931 -9.357 4.921 -7.181 2.04 C-4.6 0.202 -3.15 0.016 0 0 Z " transform="translate(116.0625,0.46875)"/>
    <path d="M0 0 C0.741 -0.004 1.483 -0.007 2.247 -0.011 C4.751 -0.02 7.255 -0.015 9.76 -0.01 C11.565 -0.014 13.371 -0.018 15.177 -0.024 C20.154 -0.036 25.132 -0.036 30.109 -0.033 C35.471 -0.033 40.833 -0.044 46.195 -0.054 C56.706 -0.07 67.217 -0.076 77.728 -0.077 C86.269 -0.078 94.809 -0.082 103.35 -0.088 C127.545 -0.106 151.74 -0.115 175.934 -0.114 C176.587 -0.114 176.587 -0.114 179.89 -0.113 C181.197 -0.113 182.504 -0.113 183.85 -0.113 C205.037 -0.112 226.225 -0.131 247.412 -0.16 C269.148 -0.188 290.884 -0.202 312.62 -0.2 C324.83 -0.2 337.041 -0.205 349.252 -0.227 C359.647 -0.245 370.042 -0.249 380.438 -0.236 C385.745 -0.229 391.051 -0.229 396.358 -0.246 C401.213 -0.262 406.067 -0.259 410.922 -0.242 C412.681 -0.239 414.441 -0.243 416.201 -0.254 C418.587 -0.268 420.971 -0.257 423.357 -0.241 C424.046 -0.25 424.735 -0.26 425.444 -0.271 C430.14 -0.201 432.499 0.957 435.804 4.257 C437.557 7.762 437.116 11.708 437.179 15.57 C437.217 16.425 437.254 17.28 437.293 18.162 C437.356 22.667 437.293 24.621 434.468 28.3 C430.159 31.466 426.902 31.384 421.674 31.389 C420.94 31.391 420.205 31.393 419.449 31.395 C416.968 31.401 414.488 31.399 412.008 31.398 C410.219 31.4 408.431 31.403 406.642 31.407 C401.712 31.415 396.782 31.417 391.853 31.417 C386.542 31.419 381.231 31.427 375.92 31.433 C364.3 31.447 352.68 31.453 341.061 31.457 C333.809 31.46 326.558 31.464 319.306 31.469 C299.241 31.481 279.175 31.491 259.109 31.495 C258.467 31.495 258.467 31.495 255.216 31.496 C253.928 31.496 252.64 31.496 251.313 31.496 C248.703 31.497 246.093 31.497 243.483 31.498 C242.188 31.498 240.894 31.498 239.56 31.498 C218.574 31.502 197.587 31.52 176.601 31.543 C155.07 31.567 133.539 31.579 112.007 31.58 C99.912 31.581 87.817 31.587 75.722 31.605 C65.424 31.62 55.127 31.626 44.829 31.617 C39.573 31.613 34.317 31.614 29.06 31.628 C24.251 31.641 19.441 31.64 14.632 31.628 C12.89 31.626 11.147 31.629 9.405 31.638 C7.041 31.649 4.677 31.641 2.312 31.629 C0.998 31.63 -0.317 31.63 -1.671 31.631 C-6.005 31.171 -9.719 30.065 -12.551 26.597 C-13.535 23.025 -13.524 19.494 -13.508 15.82 C-13.524 15.069 -13.54 14.318 -13.557 13.544 C-13.561 8.96 -13.16 5.972 -10.196 2.257 C-6.626 -0.122 -4.118 -0.024 0 0 Z " transform="translate(14.195585250854492,419.74273109436035)"/></g>
</svg>
