<svg xmlns="http://www.w3.org/2000/svg" viewBox="0 0 600 600">
  <g fill="#E3BB63"><path d="M0 0 C4.311 3.937 7.939 8.421 11.625 12.938 C12.24 13.687 12.854 14.436 13.488 15.208 C17.739 20.407 21.902 25.67 26.026 30.97 C29.093 34.895 32.262 38.716 35.5 42.5 C39.212 46.838 42.807 51.243 46.312 55.75 C50.419 61.027 54.615 66.221 58.875 71.375 C59.464 72.088 60.054 72.801 60.661 73.535 C61.251 74.249 61.841 74.964 62.449 75.699 C69.951 84.775 77.387 93.9 84.625 103.188 C88.589 108.273 92.69 113.216 96.882 118.115 C100.124 121.92 103.243 125.804 106.312 129.75 C110.419 135.027 114.615 140.221 118.875 145.375 C119.464 146.088 120.054 146.801 120.661 147.535 C121.251 148.249 121.841 148.964 122.449 149.699 C130.526 159.471 138.523 169.305 146.311 179.309 C148.386 181.971 150.487 184.604 152.652 187.193 C153.427 188.119 154.202 189.046 155 190 C155.001 189.04 155.003 188.08 155.004 187.091 C155.041 163.748 155.1 140.405 155.184 117.062 C155.224 105.774 155.256 94.485 155.271 83.197 C155.284 73.36 155.311 63.523 155.355 53.686 C155.377 48.475 155.393 43.265 155.392 38.055 C155.391 33.153 155.409 28.251 155.441 23.35 C155.45 21.548 155.451 19.747 155.446 17.946 C155.439 15.49 155.457 13.036 155.481 10.58 C155.473 9.864 155.465 9.148 155.458 8.411 C155.516 5.013 155.784 3.278 157.893 0.559 C160.353 -1.261 161.593 -1.514 164.625 -1.531 C165.496 -1.536 166.368 -1.542 167.266 -1.547 C167.717 -1.539 167.717 -1.539 170 -1.5 C170.902 -1.515 171.805 -1.531 172.734 -1.547 C173.606 -1.542 174.477 -1.537 175.375 -1.531 C176.166 -1.527 176.958 -1.522 177.773 -1.518 C180.95 -0.779 182.006 0.426 184 3 C184.396 5.676 184.548 7.943 184.519 10.618 C184.523 11.004 184.523 11.004 184.542 12.955 C184.562 15.541 184.554 18.126 184.546 20.712 C184.555 22.565 184.565 24.417 184.577 26.27 C184.605 31.303 184.608 36.335 184.608 41.368 C184.611 46.627 184.636 51.885 184.659 57.143 C184.7 67.102 184.72 77.061 184.733 87.02 C184.749 98.357 184.788 109.694 184.828 121.032 C184.911 144.354 184.965 167.677 185 191 C187.216 188.319 189.431 185.636 191.645 182.953 C192.265 182.203 192.885 181.453 193.524 180.68 C197.312 176.087 201.037 171.453 204.688 166.75 C208.63 161.689 212.703 156.766 216.876 151.894 C220.189 148.007 223.367 144.032 226.5 140 C230.571 134.762 234.773 129.662 239.082 124.618 C242.491 120.621 245.794 116.553 249.059 112.438 C251.826 108.963 254.648 105.533 257.465 102.098 C260.403 98.511 263.327 94.912 266.25 91.312 C266.801 90.634 267.353 89.955 267.921 89.255 C269.051 87.864 270.181 86.472 271.311 85.081 C274.578 81.057 277.847 77.035 281.115 73.012 C283.874 69.617 286.633 66.221 289.391 62.824 C294.795 56.168 300.208 49.519 305.641 42.887 C308.517 39.367 311.384 35.84 314.25 32.312 C314.797 31.639 315.345 30.965 315.909 30.271 C318.769 26.751 321.626 23.227 324.477 19.699 C327.182 16.353 329.898 13.016 332.624 9.687 C333.823 8.217 335.01 6.736 336.195 5.254 C336.791 4.531 337.386 3.808 338 3.062 C338.237 2.769 338.237 2.769 339.438 1.285 C341.638 -0.525 343.16 -0.869 346 -1 C348.453 0.168 348.453 0.168 351 2 C351.472 2.338 351.472 2.338 353.859 4.051 C354.336 4.424 354.336 4.424 356.75 6.312 C357.714 7.051 358.678 7.79 359.672 8.551 C362.463 11.487 363.042 12.967 363 17 C361.734 19.535 361.734 19.535 359.75 22.062 C359.013 23.011 358.275 23.96 357.516 24.938 C353.937 29.294 350.319 33.612 346.648 37.891 C343.758 41.267 340.985 44.729 338.223 48.211 C335.359 51.805 332.462 55.372 329.562 58.938 C328.997 59.633 328.431 60.329 327.848 61.046 C324.028 65.743 320.196 70.43 316.359 75.113 C311.79 80.705 307.241 86.313 302.689 91.919 C299.422 95.943 296.153 99.965 292.885 103.988 C290.126 107.383 287.367 110.779 284.609 114.176 C279.205 120.832 273.792 127.481 268.359 134.113 C263.79 139.705 259.241 145.313 254.689 150.919 C251.422 154.943 248.153 158.965 244.885 162.988 C242.126 166.383 239.367 169.779 236.609 173.176 C231.205 179.832 225.792 186.481 220.359 193.113 C216.931 197.308 213.511 201.51 210.104 205.722 C207.202 209.308 204.278 212.872 201.312 216.406 C200.716 217.123 200.119 217.84 199.505 218.579 C198.361 219.954 197.209 221.323 196.05 222.684 C190.918 228.88 190.918 228.88 191 233 C192.756 236.69 195.265 239.686 197.875 242.812 C198.672 243.774 199.468 244.736 200.289 245.727 C200.724 246.25 201.159 246.774 201.606 247.313 C204.175 250.422 206.71 253.556 209.25 256.688 C210.367 258.064 211.484 259.44 212.602 260.816 C213.163 261.508 213.724 262.199 214.302 262.911 C215.977 264.972 217.656 267.031 219.336 269.09 C224.491 275.412 229.612 281.753 234.625 288.188 C238.589 293.274 242.69 298.216 246.882 303.115 C250.124 306.92 253.243 310.804 256.312 314.75 C260.419 320.027 264.615 325.221 268.875 330.375 C269.464 331.088 270.054 331.801 270.661 332.535 C271.251 333.249 271.841 333.964 272.449 334.699 C279.951 343.775 287.387 352.9 294.625 362.188 C298.589 367.273 302.69 372.216 306.882 377.115 C310.124 380.92 313.243 384.804 316.312 388.75 C320.419 394.027 324.615 399.221 328.875 404.375 C329.464 405.088 330.054 405.801 330.661 406.535 C331.251 407.249 331.841 407.964 332.449 408.699 C339.951 417.775 347.387 426.9 354.625 436.188 C358.581 441.263 362.672 446.196 366.856 451.084 C370.354 455.191 373.732 459.382 377.062 463.625 C377.528 464.217 377.993 464.81 378.473 465.42 C384.706 473.407 384.706 473.407 384 480 C381.668 482.496 380.225 482.973 376.815 483.376 C375.543 483.377 374.27 483.377 372.96 483.378 C372.247 483.382 371.535 483.386 370.8 483.391 C368.4 483.402 366.001 483.391 363.601 483.381 C361.868 483.384 360.135 483.389 358.402 483.395 C353.63 483.408 348.858 483.401 344.086 483.392 C338.944 483.385 333.801 483.396 328.659 483.404 C318.581 483.417 308.503 483.415 298.425 483.406 C290.236 483.399 282.048 483.398 273.86 483.401 C272.696 483.402 271.532 483.402 270.333 483.403 C267.968 483.404 265.604 483.405 263.24 483.406 C241.053 483.414 218.866 483.404 196.678 483.388 C177.627 483.375 158.576 483.377 139.525 483.391 C117.419 483.407 95.313 483.413 73.208 483.404 C70.852 483.403 68.496 483.402 66.14 483.401 C65.561 483.401 65.561 483.401 62.628 483.4 C54.446 483.397 46.264 483.402 38.083 483.409 C28.117 483.417 18.151 483.415 8.185 483.399 C3.097 483.391 -1.991 483.388 -7.079 483.398 C-11.733 483.407 -16.386 483.402 -21.039 483.386 C-22.727 483.383 -24.414 483.384 -26.102 483.392 C-28.388 483.401 -30.674 483.392 -32.96 483.378 C-33.596 483.377 -33.596 483.377 -36.815 483.376 C-40.227 482.973 -41.64 482.461 -44 480 C-44.764 476.528 -44.721 474.223 -42.883 471.105 C-41.004 468.661 -39.01 466.339 -37 464 C-35.43 462.08 -33.873 460.149 -32.315 458.219 C-27.361 452.082 -22.357 445.987 -17.359 439.887 C-12.79 434.295 -8.241 428.687 -3.689 423.081 C-0.422 419.057 2.847 415.035 6.115 411.012 C8.874 407.617 11.633 404.221 14.391 400.824 C19.795 394.168 25.208 387.519 30.641 380.887 C35.21 375.295 39.759 369.687 44.311 364.081 C47.578 360.057 50.847 356.035 54.115 352.012 C56.874 348.617 59.633 345.221 62.391 341.824 C67.795 335.168 73.208 328.519 78.641 321.887 C83.21 316.295 87.759 310.687 92.311 305.081 C95.578 301.057 98.847 297.035 102.115 293.012 C104.874 289.617 107.633 286.221 110.391 282.824 C115.085 277.043 119.781 271.262 124.5 265.5 C129.334 259.596 134.164 253.688 138.957 247.75 C140.743 245.539 142.547 243.355 144.387 241.188 C145.022 240.424 145.658 239.661 146.312 238.875 C146.845 238.254 147.377 237.632 147.926 236.992 C149.457 234.152 149.385 232.179 149 229 C147.707 226.789 147.707 226.789 145.812 224.625 C145.448 224.196 145.448 224.196 143.602 222.023 C142.743 221.026 141.885 220.028 141 219 C138.88 216.429 136.785 213.839 134.688 211.25 C134.129 210.565 133.571 209.879 132.996 209.173 C129.404 204.759 125.871 200.303 122.375 195.812 C118.411 190.726 114.31 185.784 110.118 180.885 C106.876 177.08 103.757 173.196 100.688 169.25 C96.581 163.973 92.385 158.779 88.125 153.625 C87.536 152.912 86.946 152.199 86.339 151.465 C85.749 150.751 85.159 150.036 84.551 149.301 C77.049 140.225 69.613 131.1 62.375 121.812 C58.411 116.727 54.31 111.784 50.118 106.885 C46.876 103.08 43.757 99.196 40.688 95.25 C36.581 89.973 32.385 84.779 28.125 79.625 C27.536 78.912 26.946 78.199 26.339 77.465 C25.749 76.751 25.159 76.036 24.551 75.301 C16.584 65.662 8.718 55.952 1.031 46.088 C-2.139 42.042 -5.414 38.099 -8.75 34.188 C-9.658 33.116 -10.565 32.044 -11.473 30.973 C-13.051 29.116 -14.641 27.268 -16.246 25.434 C-19.18 21.944 -20.844 19.781 -21.75 15.25 C-20.131 8.234 -12.584 4.081 -7 0 C-4.197 -1.402 -2.965 -0.965 0 0 Z M155 272 C153.402 273.958 151.851 275.934 150.312 277.938 C145.921 283.595 141.439 289.167 136.875 294.688 C136.275 295.414 135.675 296.14 135.056 296.888 C133.893 298.295 132.73 299.701 131.566 301.106 C123.646 310.684 115.834 320.351 108 330 C101.466 338.048 94.929 346.094 88.359 354.113 C83.79 359.705 79.241 365.313 74.689 370.919 C71.422 374.943 68.153 378.965 64.885 382.988 C62.126 386.383 59.367 389.779 56.609 393.176 C51.915 398.957 47.219 404.738 42.5 410.5 C41 412.333 39.5 414.167 38 416 C37.51 416.598 37.021 417.196 36.516 417.812 C32.658 422.525 28.821 427.256 25 432 C24.491 432.629 23.983 433.257 23.458 433.905 C22.045 435.658 20.646 437.421 19.25 439.188 C18.85 439.69 18.85 439.69 16.828 442.23 C13.894 446.676 13.894 446.676 14 450 C15.64 452.55 16.415 453.563 19 455 C23.376 455.746 27.715 455.631 32.144 455.568 C33.516 455.566 34.888 455.567 36.261 455.569 C39.93 455.571 43.599 455.542 47.268 455.506 C50.713 455.478 54.158 455.477 57.603 455.473 C67.673 455.447 77.743 455.377 87.812 455.312 C99.063 455.261 99.063 455.261 156 455 C156 394.61 156 334.22 156 272 C155.67 272 155.34 272 155 272 Z M184 272 C184 332.39 184 392.78 184 455 C206.502 455.103 229.004 455.206 252.188 455.312 C255.741 455.335 255.741 455.335 273.723 455.45 C282.397 455.473 282.397 455.473 286.457 455.477 C289.294 455.482 292.131 455.501 294.969 455.528 C298.588 455.562 302.208 455.572 305.827 455.565 C307.782 455.568 309.737 455.594 311.691 455.622 C321.182 455.566 321.182 455.566 324.311 452.645 C326 450 326 450 326.16 447.109 C324.638 443.029 322.36 440.424 319.438 437.25 C318.33 436.004 317.223 434.756 316.117 433.508 C315.578 432.905 315.039 432.302 314.483 431.681 C312.604 429.551 310.823 427.354 309.062 425.125 C305.679 420.847 302.255 416.606 298.812 412.375 C298.258 411.693 297.704 411.012 297.134 410.31 C294.312 406.839 291.488 403.372 288.66 399.906 C283.507 393.585 278.387 387.246 273.375 380.812 C269.411 375.726 265.31 370.784 261.118 365.885 C257.876 362.08 254.757 358.196 251.688 354.25 C247.581 348.973 243.385 343.779 239.125 338.625 C238.536 337.912 237.946 337.199 237.339 336.465 C236.749 335.751 236.159 335.036 235.551 334.301 C228.049 325.225 220.613 316.1 213.375 306.812 C209.42 301.738 205.334 296.802 201.144 291.92 C197.116 287.202 193.294 282.334 189.527 277.404 C186.211 273.105 186.211 273.105 184 272 Z " transform="translate(130.0,59.0)"/></g>
</svg>
