<?xml version="1.0" encoding="UTF-8"?>
<svg id="Layer_2" data-name="Layer 2" xmlns="http://www.w3.org/2000/svg" viewBox="0 0 63.95 72.14">
  <defs>
    <style>
      .cls-1 {
        fill: #E3BB63;
      }
    </style>
  </defs>
  <g id="Layer_1-2" data-name="Layer 1">
    <path class="cls-1" d="M63.72,70.51l-28.51-35.16c-.3-.37-.3-.89,0-1.26L60.47,3.04c.35-.43.28-1.06-.14-1.41l-1.67-1.36c-.43-.35-1.06-.28-1.41.14l-23.19,28.5V1.06c0-.59-.41-1.06-.91-1.06h-2.33c-.5,0-.91.48-.91,1.06v27.73L6.89.42c-.35-.43-.98-.5-1.41-.15l-1.67,1.36c-.43.35-.5.98-.15,1.41l25.17,31.04c.3.37.3.89,0,1.26L.23,70.5c-.53.65-.07,1.63.78,1.63h61.94c.84,0,1.31-.97.78-1.62ZM8.97,66.34l20.93-25.73v27.36H9.74c-.84,0-1.31-.98-.78-1.64ZM54.22,67.98h-20.17v-27.46l20.94,25.83c.53.65.06,1.63-.78,1.63Z"/>
  </g>
</svg>