<svg xmlns="http://www.w3.org/2000/svg" viewBox="0 0 600 600">
  <g fill="#4A2F1B"><path d="M0 0 C0.76 -0.037 1.52 -0.075 2.303 -0.113 C3.045 -0.125 3.786 -0.136 4.551 -0.148 C4.887 -0.158 4.887 -0.158 6.591 -0.208 C9.98 0.735 11.965 2.381 13.688 5.375 C14.455 9.657 14.357 13.909 14.316 18.25 C14.321 19.588 14.328 20.925 14.337 22.263 C14.356 25.939 14.344 29.613 14.326 33.289 C14.313 37.253 14.329 41.216 14.34 45.18 C14.359 52.945 14.35 60.709 14.332 68.474 C14.318 74.783 14.314 81.092 14.318 87.401 C14.318 88.298 14.319 89.195 14.319 90.12 C14.32 91.943 14.321 93.766 14.322 95.589 C14.331 111.713 14.314 127.836 14.284 143.96 C14.256 159.614 14.249 175.267 14.264 190.92 C14.281 207.959 14.285 224.997 14.267 242.035 C14.265 243.851 14.264 245.667 14.262 247.483 C14.261 248.377 14.26 249.27 14.259 250.191 C14.253 256.494 14.257 262.798 14.263 269.101 C14.271 276.78 14.264 284.459 14.239 292.138 C14.227 296.057 14.22 299.976 14.232 303.896 C14.242 307.482 14.233 311.067 14.21 314.652 C14.202 316.569 14.214 318.485 14.227 320.402 C14.216 321.535 14.205 322.669 14.194 323.837 C14.192 324.817 14.191 325.797 14.19 326.806 C13.546 330.1 12.253 331.284 9.688 333.375 C6.466 334.641 3.184 334.541 -0.25 334.562 C-1.27 334.577 -2.289 334.591 -3.34 334.605 C-7.349 334.295 -10.137 333.631 -12.933 330.643 C-14.639 327.838 -14.689 326.121 -14.693 322.85 C-14.697 322.284 -14.697 322.284 -14.718 319.423 C-14.712 318.181 -14.706 316.939 -14.7 315.659 C-14.706 314.339 -14.711 313.019 -14.716 311.66 C-14.731 307.994 -14.727 304.328 -14.719 300.662 C-14.715 296.71 -14.727 292.757 -14.737 288.805 C-14.755 281.061 -14.755 273.317 -14.75 265.573 C-14.746 259.281 -14.748 252.989 -14.753 246.696 C-14.754 245.802 -14.754 244.907 -14.755 243.985 C-14.757 242.168 -14.758 240.35 -14.76 238.533 C-14.774 221.48 -14.768 204.428 -14.757 187.375 C-14.747 171.765 -14.76 156.154 -14.784 140.544 C-14.808 124.525 -14.818 108.506 -14.811 92.486 C-14.807 83.489 -14.81 74.491 -14.827 65.494 C-14.842 57.835 -14.843 50.177 -14.825 42.518 C-14.817 38.609 -14.814 34.7 -14.83 30.79 C-14.846 26.557 -14.831 22.325 -14.814 18.091 C-14.823 16.849 -14.833 15.607 -14.843 14.327 C-14.833 13.196 -14.823 12.065 -14.813 10.9 C-14.813 9.923 -14.813 8.945 -14.813 7.938 C-14.17 4.645 -12.871 3.473 -10.312 1.375 C-7.069 -0.247 -3.561 0.065 0 0 Z " transform="translate(299.3125,57.625)"/>
    <path d="M0 0 C2.766 1.278 2.766 1.278 5.605 3.078 C6.661 3.738 7.717 4.398 8.805 5.078 C9.933 5.802 11.06 6.526 12.188 7.25 C13.361 7.99 14.535 8.729 15.71 9.467 C18.062 10.946 20.409 12.433 22.75 13.927 C25.524 15.697 28.304 17.456 31.09 19.207 C34.125 21.116 37.156 23.032 40.184 24.953 C48.737 30.373 57.338 35.719 65.928 41.081 C68.937 42.96 71.943 44.843 74.949 46.727 C76.924 47.964 78.9 49.201 80.875 50.438 C81.846 51.046 82.818 51.655 83.819 52.282 C89.22 55.66 94.638 59.008 100.078 62.324 C101.266 63.05 102.453 63.775 103.641 64.5 C105.907 65.884 108.177 67.261 110.449 68.635 C123.93 76.86 123.93 76.86 126 81 C126.096 82.764 126.128 84.531 126.129 86.297 C126.132 87.429 126.136 88.561 126.139 89.727 C126.137 90.984 126.135 92.24 126.133 93.535 C126.134 94.882 126.135 96.229 126.137 97.575 C126.14 101.289 126.136 105.003 126.129 108.717 C126.125 111.059 126.122 113.4 126.119 115.742 C126.104 127.157 126.063 138.573 126.013 149.988 C126 153.103 125.987 156.218 125.974 159.333 C125.918 172.649 125.838 185.964 125.736 199.28 C125.702 203.685 125.675 208.089 125.654 212.493 C125.629 217.723 125.588 222.953 125.537 228.182 C125.52 230.127 125.509 232.072 125.502 234.017 C125.493 236.682 125.465 239.346 125.432 242.011 C125.434 242.798 125.435 243.585 125.437 244.396 C125.399 246.561 125.399 246.561 125 250 C121.367 252.422 119.674 252.251 115.348 252.255 C115.012 252.257 115.012 252.257 113.312 252.266 C111.851 252.273 110.391 252.276 108.931 252.274 C106.609 252.273 104.286 252.286 101.964 252.303 C95.359 252.35 88.755 252.374 82.15 252.381 C78.107 252.386 74.065 252.41 70.022 252.446 C68.492 252.456 66.962 252.458 65.432 252.453 C51.593 252.407 39.451 254.71 28 263 C27.456 263.556 26.912 264.111 26.352 264.684 C25 266 25 266 23 266 C22.729 266.575 22.459 267.15 22.18 267.742 C20.985 270.028 19.62 272.026 18.125 274.125 C13.281 281.291 9.902 289.259 9.846 297.974 C9.837 298.976 9.829 299.978 9.82 301.01 C9.816 302.103 9.812 303.197 9.807 304.323 C9.799 305.48 9.791 306.637 9.782 307.829 C9.758 311.663 9.741 315.497 9.727 319.332 C9.721 320.645 9.716 321.957 9.71 323.309 C9.689 328.833 9.67 334.357 9.659 339.881 C9.643 347.761 9.61 355.642 9.552 363.522 C9.513 369.081 9.494 374.64 9.489 380.198 C9.485 383.508 9.471 386.818 9.441 390.128 C9.272 409.809 9.831 425.994 24 441 C34.591 450.428 46.913 454.15 60.777 454.147 C61.273 454.149 61.273 454.149 63.781 454.158 C67.108 454.169 70.434 454.173 73.76 454.177 C76.143 454.183 78.527 454.19 80.91 454.197 C88.066 454.216 95.222 454.227 102.377 454.236 C105.752 454.24 109.126 454.245 112.501 454.251 C123.726 454.268 134.952 454.282 146.178 454.289 C149.089 454.291 152 454.293 154.911 454.295 C155.273 454.295 155.273 454.295 157.103 454.297 C168.812 454.305 180.52 454.33 192.228 454.363 C204.264 454.396 216.3 454.414 228.336 454.417 C235.088 454.419 241.839 454.428 248.591 454.453 C254.947 454.477 261.303 454.481 267.659 454.471 C269.985 454.47 272.312 454.477 274.638 454.49 C293.489 454.596 309.787 452.897 324 439 C337.438 423.513 336.739 405.879 336.629 386.488 C336.63 383.826 336.632 381.163 336.636 378.5 C336.641 372.944 336.625 367.387 336.597 361.831 C336.565 355.438 336.565 349.047 336.582 342.654 C336.598 336.459 336.591 330.264 336.574 324.068 C336.569 321.452 336.569 318.835 336.576 316.219 C336.581 312.556 336.561 308.894 336.533 305.232 C336.54 304.167 336.546 303.102 336.553 302.005 C336.434 292.508 334.065 283.519 328.938 275.438 C328.452 274.652 327.966 273.867 327.465 273.059 C326 271 326 271 324.316 269.348 C323 268 323 268 323 266 C322.425 265.729 321.85 265.459 321.258 265.18 C318.972 263.985 316.974 262.62 314.875 261.125 C306.407 255.41 298.041 252.895 287.871 252.842 C287.172 252.837 286.474 252.832 285.755 252.827 C284.246 252.816 282.738 252.808 281.229 252.801 C278.842 252.789 276.455 252.769 274.067 252.748 C267.283 252.686 260.498 252.632 253.713 252.599 C249.558 252.578 245.402 252.542 241.247 252.498 C239.664 252.484 238.081 252.475 236.498 252.472 C234.289 252.467 232.08 252.444 229.871 252.417 C228.613 252.408 227.356 252.4 226.061 252.392 C223 252 223 252 221.333 250.897 C219.332 248.049 219.616 245.712 219.606 242.257 C219.599 241.568 219.593 240.879 219.587 240.169 C219.57 237.854 219.575 235.54 219.58 233.225 C219.573 231.568 219.564 229.91 219.554 228.253 C219.532 223.747 219.529 219.241 219.531 214.734 C219.531 210.974 219.523 207.215 219.514 203.455 C219.495 194.584 219.492 185.714 219.499 176.844 C219.506 167.69 219.483 158.536 219.446 149.382 C219.415 141.526 219.404 133.671 219.408 125.815 C219.41 121.122 219.404 116.428 219.38 111.735 C219.357 107.321 219.359 102.907 219.38 98.493 C219.383 96.872 219.378 95.252 219.364 93.632 C219.345 91.42 219.358 89.209 219.379 86.997 C219.378 85.759 219.377 84.521 219.376 83.246 C220.314 78.366 223.218 76.284 227.115 73.477 C227.815 73.054 228.516 72.631 229.238 72.195 C230.046 71.702 230.853 71.21 231.685 70.702 C232.552 70.181 233.419 69.661 234.312 69.125 C236.209 67.969 238.105 66.813 240 65.656 C240.986 65.057 241.972 64.457 242.988 63.84 C247.954 60.807 252.882 57.715 257.812 54.625 C259.84 53.357 261.867 52.088 263.895 50.82 C264.903 50.189 265.912 49.558 266.952 48.907 C272.967 45.143 278.986 41.383 285.004 37.623 C289.981 34.513 294.957 31.401 299.93 28.285 C310.721 21.526 321.533 14.802 332.375 8.125 C332.948 7.772 333.521 7.419 334.111 7.055 C335.727 6.059 337.344 5.065 338.961 4.07 C339.424 3.786 339.424 3.786 341.767 2.344 C345.467 0.117 347.619 -0.515 352 0 C357.909 4.432 362.334 11.614 363.75 18.812 C362.215 25.337 354.547 28.666 349.161 32.01 C348.159 32.625 347.157 33.241 346.125 33.875 C343.958 35.217 341.792 36.56 339.625 37.902 C338.522 38.584 337.418 39.266 336.281 39.968 C332.198 42.496 328.129 45.046 324.061 47.597 C314.632 53.508 305.171 59.365 295.688 65.188 C285.779 71.272 275.911 77.415 266.104 83.663 C263.993 85.004 261.876 86.337 259.758 87.668 C258.463 88.487 257.169 89.306 255.875 90.125 C254.759 90.829 253.642 91.533 252.492 92.258 C250 94 250 94 249 96 C248.877 98.736 248.812 101.446 248.797 104.184 C248.791 104.995 248.785 105.806 248.78 106.642 C248.77 108.359 248.764 110.077 248.76 111.794 C248.75 114.424 248.719 117.052 248.688 119.682 C248.681 121.349 248.676 123.016 248.672 124.684 C248.666 125.077 248.666 125.077 248.634 127.07 C248.657 132.544 248.657 132.544 250.521 135.02 C251.009 135.343 251.497 135.667 252 136 C256.354 134.687 260.033 132.993 263.945 130.684 C264.225 130.519 264.225 130.519 265.64 129.688 C267.472 128.611 269.298 127.524 271.125 126.438 C272.412 125.677 273.7 124.918 274.987 124.158 C284.574 118.492 294.092 112.714 303.597 106.911 C310.878 102.465 318.179 98.081 325.665 93.987 C328.849 92.24 331.951 90.422 335.012 88.465 C335.68 88.043 336.349 87.621 337.038 87.186 C338.295 86.386 339.544 85.572 340.781 84.74 C345.471 81.773 348.624 81.465 354 82 C356.688 84 356.688 84 359 87 C359.467 87.605 359.933 88.209 360.414 88.832 C363.852 93.701 364.973 97.065 364 103 C360.675 106.868 357.095 109.361 352.695 111.891 C352.1 112.236 351.504 112.582 350.89 112.938 C348.972 114.049 347.049 115.15 345.125 116.25 C343.791 117.021 342.457 117.793 341.124 118.566 C338.536 120.066 335.948 121.562 333.357 123.056 C329.673 125.189 326.018 127.36 322.375 129.562 C315.687 133.597 308.97 137.582 302.25 141.562 C301.09 142.25 299.929 142.937 298.769 143.625 C293.34 146.841 287.909 150.055 282.474 153.262 C280.061 154.686 277.649 156.111 275.237 157.537 C273.558 158.528 271.877 159.518 270.196 160.508 C250.393 172.214 250.393 172.214 249 175 C248.901 176.434 248.862 177.873 248.855 179.31 C248.848 180.201 248.842 181.093 248.835 182.011 C248.834 182.975 248.833 183.94 248.832 184.934 C248.829 185.922 248.825 186.911 248.822 187.93 C248.817 190.024 248.815 192.118 248.815 194.212 C248.813 197.421 248.794 200.629 248.775 203.838 C248.772 205.87 248.77 207.902 248.77 209.934 C248.766 210.415 248.766 210.415 248.748 212.85 C248.751 213.745 248.754 214.639 248.757 215.56 C248.756 215.954 248.756 215.954 248.753 217.944 C249 220 249 220 251 223 C252.803 223.379 252.803 223.379 255.012 223.385 C255.841 223.395 256.67 223.405 257.525 223.415 C257.976 223.414 257.976 223.414 260.258 223.406 C260.726 223.412 260.726 223.412 263.094 223.439 C266.104 223.473 269.114 223.489 272.125 223.5 C297.401 223.595 319.103 225.867 339 243 C339.799 243.687 340.598 244.374 341.422 245.082 C355.028 257.726 364.04 276.284 365.172 294.82 C365.464 303.138 365.42 311.459 365.398 319.781 C365.399 322.485 365.403 325.19 365.407 327.894 C365.413 333.542 365.405 339.19 365.391 344.838 C365.375 351.331 365.38 357.824 365.397 364.316 C365.41 369.931 365.412 375.546 365.404 381.161 C365.4 384.497 365.4 387.833 365.409 391.169 C365.464 418.029 361.775 441.416 342.25 461.375 C322.304 480.887 298.356 483.464 271.953 483.388 C269.552 483.392 267.15 483.398 264.749 483.404 C258.936 483.416 253.124 483.415 247.312 483.406 C242.583 483.399 237.853 483.398 233.124 483.401 C232.786 483.402 232.786 483.402 231.075 483.403 C229.7 483.404 228.325 483.405 226.951 483.406 C214.1 483.414 201.249 483.405 188.398 483.388 C177.402 483.375 166.406 483.377 155.41 483.391 C142.601 483.407 129.792 483.413 116.983 483.404 C115.614 483.403 114.245 483.402 112.876 483.401 C112.202 483.401 111.529 483.401 110.835 483.4 C106.119 483.397 101.402 483.402 96.686 483.409 C90.323 483.418 83.96 483.411 77.597 483.394 C75.272 483.39 72.946 483.391 70.621 483.398 C55.531 483.437 40.705 483.341 26.75 476.812 C26.418 476.661 26.418 476.661 24.74 475.896 C6.183 467.117 -7.694 451.35 -14.888 432.2 C-20.018 417.439 -19.439 402.666 -19.398 387.219 C-19.399 384.515 -19.403 381.81 -19.407 379.106 C-19.413 373.458 -19.405 367.81 -19.391 362.162 C-19.375 355.669 -19.38 349.176 -19.397 342.684 C-19.41 337.069 -19.412 331.454 -19.404 325.839 C-19.4 322.503 -19.4 319.167 -19.409 315.831 C-19.467 287.735 -15.427 265.784 5 245 C5.614 244.374 6.227 243.747 6.859 243.102 C25.703 225.305 49.686 223.748 74.25 223.375 C81.428 223.251 88.605 223.127 96 223 C96 206.17 96 189.34 96 172 C94.35 171.34 92.7 170.68 91 170 C88.997 168.904 87.014 167.772 85.047 166.613 C84.763 166.447 84.763 166.447 83.325 165.603 C81.465 164.509 79.607 163.411 77.75 162.312 C76.441 161.541 75.132 160.771 73.822 160 C64.67 154.607 55.557 149.149 46.458 143.667 C39.118 139.251 31.742 134.902 24.346 130.579 C20.703 128.449 17.064 126.314 13.424 124.179 C10.39 122.399 7.354 120.623 4.315 118.853 C0.807 116.81 -2.69 114.749 -6.188 112.688 C-7.251 112.071 -8.314 111.455 -9.41 110.82 C-10.382 110.244 -11.354 109.668 -12.355 109.074 C-12.782 108.825 -12.782 108.825 -14.938 107.561 C-17.203 105.847 -18.028 104.644 -19 102 C-19.59 96.923 -18.306 94.066 -15.688 89.75 C-15.38 89.232 -15.38 89.232 -13.824 86.609 C-12 84 -12 84 -9 82 C-2.962 81.441 0.763 82.358 5.938 85.562 C6.61 85.959 7.282 86.355 7.974 86.764 C10.327 88.158 12.663 89.579 15 91 C16.859 92.115 18.718 93.228 20.578 94.34 C23.68 96.196 26.78 98.056 29.876 99.922 C39.323 105.615 48.826 111.21 58.356 116.763 C64.129 120.129 69.881 123.52 75.586 127 C76.6 127.614 77.613 128.228 78.657 128.861 C80.545 130.007 82.427 131.163 84.302 132.331 C84.716 132.582 84.716 132.582 86.816 133.852 C87.533 134.293 88.249 134.735 88.987 135.19 C91.441 136.177 92.565 135.942 95 135 C97.893 132.107 96.323 121.585 96.35 117.482 C96.367 115.624 96.394 113.767 96.432 111.909 C96.487 109.235 96.509 106.562 96.523 103.887 C96.535 103.472 96.535 103.472 96.592 101.374 C96.571 95.605 96.571 95.605 93.773 92.641 C92.858 92.1 91.943 91.558 91 91 C90.606 90.737 90.606 90.737 88.61 89.407 C87.784 88.895 86.957 88.383 86.105 87.855 C85.163 87.269 84.22 86.683 83.249 86.078 C82.238 85.454 81.228 84.83 80.188 84.188 C78.012 82.836 75.836 81.484 73.66 80.133 C72.55 79.445 71.441 78.757 70.297 78.048 C66.211 75.51 62.135 72.956 58.059 70.401 C48.63 64.492 39.17 58.634 29.688 52.812 C19.777 46.726 9.908 40.58 0.1 34.329 C-1.993 33.004 -4.098 31.701 -6.207 30.402 C-7.492 29.602 -8.777 28.801 -10.062 28 C-11.167 27.319 -12.272 26.639 -13.41 25.938 C-16.015 23.989 -17.17 23.116 -18 20 C-17.728 15.304 -16.231 12.218 -13.688 8.312 C-13.093 7.381 -12.499 6.449 -11.887 5.488 C-8.281 0.733 -6.007 -0.496 0 0 Z " transform="translate(127.0,59.0)"/></g>
</svg>
