<svg xmlns="http://www.w3.org/2000/svg" viewBox="0 0 1200 1200">
  <g fill="#E3BB63"><path d="M0 0 C0.655 -0.002 1.31 -0.004 1.985 -0.006 C4.199 -0.011 6.413 -0.009 8.627 -0.007 C10.23 -0.009 11.832 -0.012 13.435 -0.015 C17.87 -0.022 22.305 -0.023 26.741 -0.023 C31.554 -0.024 36.368 -0.031 41.181 -0.037 C50.742 -0.048 60.303 -0.054 69.864 -0.058 C81.31 -0.063 92.757 -0.074 104.203 -0.084 C131.871 -0.11 159.54 -0.125 187.209 -0.138 C196.37 -0.142 205.531 -0.147 214.693 -0.152 C262.673 -0.176 310.653 -0.198 358.634 -0.211 C362.146 -0.212 365.659 -0.213 369.172 -0.213 C369.52 -0.214 369.52 -0.214 371.284 -0.214 C378.344 -0.216 385.404 -0.218 392.464 -0.22 C393.879 -0.22 395.295 -0.22 396.71 -0.221 C442.178 -0.233 487.647 -0.262 533.115 -0.304 C565.781 -0.334 598.448 -0.362 631.114 -0.371 C631.786 -0.372 632.457 -0.372 633.149 -0.372 C647.23 -0.376 661.312 -0.379 675.393 -0.381 C681.987 -0.381 688.581 -0.382 695.175 -0.383 C696.472 -0.384 697.77 -0.384 699.107 -0.384 C720.022 -0.387 740.937 -0.408 761.852 -0.434 C782.861 -0.46 803.87 -0.468 824.88 -0.457 C837.371 -0.451 849.862 -0.459 862.354 -0.487 C870.691 -0.504 879.027 -0.503 887.364 -0.488 C892.119 -0.479 896.873 -0.479 901.628 -0.5 C905.952 -0.52 910.275 -0.516 914.599 -0.494 C916.156 -0.49 917.712 -0.495 919.268 -0.509 C934.315 -0.634 934.315 -0.634 940.616 5.13 C947.589 12.287 946.959 20.874 946.931 30.242 C946.928 32.492 946.952 34.74 946.977 36.989 C947.052 53.162 947.052 53.162 941.643 59.407 C940.953 59.955 940.264 60.503 939.553 61.067 C938.861 61.633 938.169 62.199 937.456 62.782 C933.613 65.597 930.164 65.274 925.564 65.268 C924.722 65.271 923.88 65.274 923.012 65.277 C920.174 65.285 917.336 65.286 914.498 65.288 C912.469 65.292 910.441 65.297 908.413 65.303 C904.036 65.314 899.659 65.323 895.283 65.329 C888.362 65.34 881.442 65.36 874.521 65.382 C854.839 65.444 835.156 65.498 815.474 65.531 C804.61 65.55 793.746 65.579 782.883 65.619 C777.132 65.64 771.381 65.656 765.63 65.658 C760.219 65.66 754.807 65.676 749.396 65.703 C747.411 65.71 745.425 65.712 743.44 65.708 C740.727 65.705 738.015 65.719 735.303 65.738 C734.519 65.732 733.735 65.727 732.928 65.721 C727.782 65.783 724.124 66.566 719.616 69.13 C716.604 72.755 716.24 75.645 716.235 80.278 C716.226 81.515 716.218 82.751 716.209 84.025 C716.215 85.388 716.221 86.75 716.228 88.112 C716.223 89.553 716.218 90.994 716.212 92.435 C716.198 96.342 716.203 100.249 716.213 104.156 C716.22 108.247 716.213 112.338 716.209 116.429 C716.203 123.298 716.21 130.168 716.225 137.038 C716.241 144.977 716.236 152.917 716.219 160.856 C716.206 167.676 716.204 174.495 716.211 181.315 C716.216 185.387 716.217 189.459 716.207 193.53 C716.198 197.359 716.204 201.187 716.222 205.015 C716.225 206.419 716.224 207.823 716.218 209.227 C716.21 211.145 716.222 213.063 716.235 214.982 C716.235 215.518 716.235 215.518 716.238 218.233 C716.813 222.647 718.368 225.098 721.779 227.919 C725.535 229.523 728.985 229.544 732.997 229.508 C733.418 229.511 733.418 229.511 735.546 229.522 C738.364 229.534 741.181 229.524 743.998 229.515 C746.019 229.519 748.039 229.524 750.06 229.531 C754.41 229.543 758.761 229.545 763.111 229.541 C769.99 229.534 776.868 229.55 783.747 229.569 C798.349 229.607 812.951 229.62 827.553 229.63 C843.313 229.641 859.074 229.656 874.834 229.701 C881.672 229.719 888.51 229.723 895.349 229.716 C899.603 229.714 903.856 229.725 908.11 229.739 C910.083 229.743 912.056 229.742 914.028 229.735 C916.722 229.727 919.414 229.737 922.107 229.751 C922.498 229.748 922.498 229.748 924.473 229.731 C930.734 229.796 934.646 231.389 939.303 235.505 C944.138 240.993 945.083 244.746 945.084 251.868 C945.092 252.708 945.1 253.547 945.108 254.412 C945.118 256.185 945.121 257.958 945.117 259.73 C945.116 262.424 945.157 265.115 945.202 267.808 C945.207 269.536 945.21 271.265 945.209 272.993 C945.226 273.789 945.242 274.585 945.259 275.406 C945.171 282.628 942.277 287.396 937.303 292.505 C931.307 296.13 924.801 296.423 917.981 296.382 C917.565 296.383 917.565 296.383 915.459 296.391 C912.69 296.398 909.921 296.392 907.152 296.385 C905.159 296.388 903.166 296.392 901.173 296.396 C896.891 296.404 892.61 296.407 888.328 296.404 C881.559 296.402 874.79 296.416 868.02 296.433 C848.775 296.48 829.53 296.504 810.284 296.511 C799.648 296.515 789.011 296.533 778.374 296.566 C771.644 296.586 764.913 296.588 758.182 296.578 C754 296.575 749.817 296.589 745.634 296.608 C743.693 296.613 741.752 296.612 739.811 296.603 C737.164 296.592 734.517 296.605 731.87 296.624 C731.485 296.62 731.485 296.62 729.537 296.597 C725.95 296.648 723.804 297.014 720.725 298.912 C716.995 302.834 716.366 305.505 716.348 310.883 C716.34 312.058 716.331 313.232 716.322 314.442 C716.323 315.085 716.323 315.085 716.325 318.337 C716.319 319.707 716.312 321.078 716.305 322.448 C716.287 326.169 716.282 329.891 716.281 333.612 C716.28 335.942 716.276 338.271 716.27 340.6 C716.252 348.738 716.244 356.876 716.245 365.014 C716.246 372.578 716.225 380.142 716.194 387.706 C716.167 394.214 716.157 400.722 716.158 407.23 C716.159 411.11 716.153 414.99 716.132 418.871 C716.112 422.528 716.112 426.186 716.127 429.843 C716.13 431.807 716.113 433.77 716.096 435.733 C716.22 453.434 723.341 463.193 735.473 475.207 C736.353 476.087 737.233 476.967 738.14 477.873 C740.567 480.297 742.997 482.716 745.43 485.133 C748.06 487.747 750.683 490.368 753.308 492.987 C757.85 497.521 762.396 502.051 766.945 506.579 C773.527 513.131 780.102 519.691 786.675 526.253 C797.349 536.907 808.026 547.559 818.707 558.207 C819.345 558.843 819.984 559.48 820.642 560.136 C827.768 567.241 834.896 574.346 842.025 581.45 C844.612 584.028 847.199 586.606 849.786 589.183 C850.424 589.82 851.062 590.456 851.72 591.111 C862.366 601.72 873.006 612.335 883.641 622.955 C890.197 629.5 896.758 636.041 903.326 642.575 C907.824 647.051 912.317 651.532 916.805 656.018 C919.394 658.605 921.986 661.19 924.584 663.767 C927.402 666.563 930.208 669.371 933.013 672.18 C933.834 672.99 934.654 673.801 935.5 674.636 C941.787 680.963 946.185 686.476 946.698 695.657 C946.398 704.68 940.644 709.964 934.616 716.13 C933.549 717.258 932.482 718.387 931.416 719.517 C930.297 720.681 929.176 721.844 928.053 723.005 C927.536 723.552 927.018 724.1 926.485 724.664 C921.95 729.264 917.099 732.549 910.639 733.626 C909.765 733.607 908.891 733.587 907.991 733.567 C907.112 733.566 906.232 733.565 905.327 733.564 C891.874 731.412 879.745 714.365 870.597 705.145 C868.998 703.538 867.399 701.931 865.799 700.324 C862.373 696.881 858.948 693.437 855.524 689.991 C850.112 684.546 844.694 679.107 839.274 673.67 C838.816 673.21 838.816 673.21 836.497 670.884 C834.624 669.005 832.752 667.126 830.879 665.247 C826.084 660.435 821.289 655.623 816.495 650.81 C816.014 650.328 815.534 649.845 815.039 649.348 C807.229 641.507 799.426 633.659 791.626 625.808 C783.604 617.735 775.572 609.672 767.532 601.616 C763.023 597.098 758.519 592.575 754.026 588.042 C749.808 583.787 745.58 579.543 741.342 575.309 C739.787 573.751 738.236 572.188 736.689 570.621 C734.583 568.488 732.463 566.371 730.338 564.258 C730.031 563.943 730.031 563.943 728.481 562.354 C724.316 558.257 724.316 558.257 720.821 557.622 C718.616 558.13 718.616 558.13 716.616 560.13 C716.364 562.891 716.364 562.891 716.362 566.497 C716.359 567.161 716.356 567.825 716.353 568.509 C716.345 570.756 716.351 573.003 716.357 575.25 C716.355 576.868 716.351 578.487 716.346 580.105 C716.336 584.57 716.339 589.035 716.343 593.5 C716.345 598.308 716.336 603.117 716.329 607.925 C716.317 616.264 716.311 624.602 716.311 632.94 C716.309 645.002 716.294 657.065 716.275 669.127 C716.244 688.704 716.22 708.282 716.202 727.859 C716.201 729.032 716.2 730.204 716.199 731.412 C716.187 744.493 716.177 757.574 716.169 770.655 C716.166 775.396 716.163 780.138 716.159 784.879 C716.159 786.049 716.158 787.219 716.157 788.425 C716.144 807.922 716.119 827.419 716.086 846.917 C716.065 858.95 716.055 870.984 716.058 883.018 C716.059 891.263 716.049 899.508 716.031 907.753 C716.021 912.513 716.016 917.273 716.024 922.033 C716.031 926.389 716.024 930.745 716.007 935.101 C716.003 936.679 716.004 938.256 716.011 939.834 C716.019 941.976 716.009 944.117 715.995 946.26 C715.994 947.45 715.993 948.641 715.992 949.867 C715.27 956.124 712.258 960.053 707.616 964.13 C704.813 965.782 702.751 966.385 699.509 966.42 C698.711 966.433 697.913 966.446 697.091 966.459 C696.664 966.46 696.664 966.46 694.502 966.466 C693.615 966.473 692.727 966.479 691.812 966.486 C689.935 966.496 688.058 966.501 686.181 966.501 C683.324 966.505 680.467 966.541 677.61 966.579 C675.782 966.585 673.955 966.589 672.127 966.591 C671.703 966.598 671.703 966.598 669.557 966.634 C663.745 966.59 660.405 965.458 655.616 962.13 C649.348 955.692 649.325 948.781 649.365 940.286 C649.362 939.186 649.36 938.087 649.357 936.954 C649.35 933.25 649.357 929.546 649.364 925.841 C649.362 923.167 649.359 920.493 649.355 917.818 C649.348 911.993 649.349 906.168 649.354 900.343 C649.361 891.681 649.358 883.019 649.351 874.357 C649.341 859.785 649.339 845.213 649.341 830.641 C649.345 809.829 649.331 789.016 649.315 768.203 C649.308 759.854 649.302 751.504 649.296 743.155 C649.295 742.691 649.295 742.691 649.294 740.344 C649.277 718.261 649.267 696.179 649.257 674.097 C649.257 673.13 649.257 672.164 649.256 671.168 C649.247 648.616 649.24 626.064 649.237 603.512 C649.237 602.541 649.237 601.571 649.237 600.571 C649.237 595.678 649.236 590.785 649.235 585.892 C649.235 584.925 649.235 583.958 649.235 582.962 C649.235 581.01 649.235 579.058 649.235 577.106 C649.231 544.88 649.214 512.654 649.182 480.428 C649.178 475.88 649.174 471.332 649.17 466.785 C649.169 465.89 649.168 464.995 649.167 464.072 C649.154 449.648 649.156 435.224 649.164 420.8 C649.172 406.314 649.165 391.828 649.145 377.342 C649.133 368.729 649.132 360.117 649.147 351.504 C649.156 345.757 649.151 340.009 649.134 334.262 C649.124 330.984 649.123 327.706 649.136 324.427 C649.148 320.901 649.136 317.375 649.118 313.848 C649.127 312.824 649.137 311.799 649.147 310.743 C649.1 306.343 649.05 303.837 646.709 300.023 C643.274 296.917 641.208 297.003 636.649 296.996 C636.009 296.994 636.009 296.994 632.771 296.982 C631.337 296.982 629.903 296.983 628.469 296.983 C626.957 296.979 625.444 296.976 623.931 296.972 C619.759 296.962 615.587 296.958 611.415 296.955 C606.921 296.951 602.428 296.942 597.934 296.933 C587.075 296.913 576.217 296.903 565.358 296.894 C560.249 296.89 555.14 296.885 550.031 296.879 C533.056 296.862 516.081 296.848 499.106 296.841 C494.699 296.839 490.292 296.837 485.885 296.835 C484.79 296.834 483.694 296.834 482.566 296.833 C464.808 296.825 447.051 296.8 429.293 296.767 C411.078 296.734 392.862 296.716 374.646 296.713 C364.412 296.711 354.178 296.702 343.944 296.676 C335.232 296.655 326.519 296.647 317.806 296.656 C313.358 296.661 308.91 296.659 304.462 296.64 C300.394 296.622 296.325 296.623 292.257 296.639 C290.782 296.641 289.306 296.637 287.831 296.625 C285.832 296.61 283.833 296.622 281.834 296.635 C280.722 296.634 279.609 296.633 278.463 296.632 C274.955 297.245 273.809 298.386 271.616 301.13 C270.434 303.494 270.49 304.902 270.489 307.539 C270.487 308.007 270.487 308.007 270.48 310.372 C270.481 310.89 270.481 310.89 270.485 313.511 C270.483 314.609 270.482 315.706 270.48 316.838 C270.474 320.561 270.476 324.284 270.478 328.007 C270.475 330.685 270.472 333.364 270.469 336.042 C270.463 341.889 270.46 347.735 270.46 353.582 C270.459 362.275 270.452 370.969 270.445 379.663 C270.433 393.389 270.424 407.115 270.418 420.842 C270.408 442.629 270.388 464.417 270.366 486.204 C270.358 494.581 270.349 502.958 270.341 511.336 C270.34 512.266 270.339 513.197 270.338 514.156 C270.316 536.325 270.296 558.493 270.278 580.661 C270.277 581.631 270.276 582.602 270.275 583.601 C270.256 606.241 270.239 628.88 270.227 651.519 C270.226 652.493 270.226 653.467 270.225 654.47 C270.221 662.318 270.217 670.166 270.213 678.014 C270.196 710.352 270.168 742.689 270.13 775.027 C270.124 779.591 270.119 784.156 270.114 788.72 C270.113 789.619 270.112 790.517 270.11 791.443 C270.094 805.919 270.089 820.395 270.087 834.871 C270.086 849.414 270.074 863.956 270.051 878.498 C270.037 887.144 270.032 895.79 270.039 904.436 C270.043 910.207 270.036 915.978 270.02 921.748 C270.011 925.039 270.009 928.33 270.017 931.621 C270.024 935.163 270.013 938.704 269.998 942.246 C270.001 942.759 270.001 942.759 270.018 945.357 C269.965 951.619 269.316 956.202 264.897 960.993 C264.603 961.232 264.603 961.232 263.116 962.442 C262.528 962.934 261.94 963.425 261.334 963.931 C255.618 967.92 246.474 966.436 239.739 966.48 C237.874 966.497 236.009 966.524 234.144 966.562 C231.443 966.617 228.743 966.639 226.041 966.653 C225.217 966.676 224.393 966.699 223.544 966.722 C217.441 966.7 213.325 965.037 208.616 961.13 C204.16 955.532 203.493 951.527 203.477 944.516 C203.474 943.849 203.471 943.183 203.468 942.496 C203.46 940.253 203.459 938.01 203.457 935.767 C203.453 934.147 203.448 932.526 203.443 930.906 C203.429 926.446 203.422 921.985 203.415 917.525 C203.407 912.718 203.393 907.911 203.38 903.104 C203.359 894.773 203.34 886.441 203.325 878.11 C203.302 866.065 203.274 854.019 203.244 841.974 C203.197 822.432 203.154 802.89 203.113 783.348 C203.074 764.362 203.032 745.376 202.988 726.391 C202.985 725.221 202.983 724.051 202.98 722.846 C202.966 716.977 202.952 711.108 202.939 705.24 C202.825 656.536 202.718 607.833 202.616 559.13 C199.862 557.945 199.862 557.945 196.616 557.13 C194.521 558.228 194.521 558.228 192.67 560.082 C191.99 560.742 191.31 561.403 190.609 562.084 C190.28 562.421 190.28 562.421 188.616 564.13 C188.04 564.687 187.465 565.243 186.872 565.817 C185.143 567.491 183.447 569.194 181.754 570.905 C181.433 571.227 181.433 571.227 179.81 572.857 C177.683 574.994 175.561 577.133 173.438 579.273 C171.905 580.815 170.372 582.356 168.838 583.897 C165.547 587.205 162.258 590.514 158.969 593.824 C153.766 599.059 148.557 604.289 143.346 609.518 C142.465 610.402 141.584 611.286 140.677 612.197 C138.876 614.003 137.076 615.81 135.275 617.617 C123.153 629.782 111.036 641.951 98.933 654.135 C90.756 662.366 82.571 670.588 74.375 678.8 C70.043 683.142 65.715 687.488 61.399 691.845 C57.341 695.941 53.271 700.025 49.192 704.101 C47.7 705.596 46.212 707.095 44.729 708.599 C42.699 710.657 40.654 712.698 38.604 714.736 C38.025 715.33 37.446 715.925 36.849 716.537 C31.623 721.676 25.963 724.652 18.678 725.692 C8.435 725.044 0.971 717.236 -5.759 710.317 C-6.635 709.453 -7.51 708.589 -8.412 707.698 C-14.419 701.622 -19.96 695.68 -19.947 686.63 C-19.969 685.774 -19.991 684.918 -20.013 684.036 C-18.247 675.874 -11.66 669.986 -5.927 664.332 C-5.077 663.482 -4.228 662.632 -3.353 661.757 C-1.01 659.415 1.34 657.08 3.693 654.748 C6.235 652.226 8.768 649.694 11.303 647.163 C15.691 642.784 20.085 638.409 24.482 634.038 C30.847 627.711 37.203 621.373 43.556 615.033 C53.876 604.735 64.201 594.442 74.531 584.154 C75.148 583.538 75.766 582.923 76.402 582.29 C81.413 577.299 86.424 572.309 91.435 567.319 C95.813 562.958 100.192 558.598 104.571 554.237 C105.187 553.623 105.804 553.008 106.439 552.376 C116.73 542.126 127.015 531.87 137.296 521.61 C143.631 515.288 149.971 508.972 156.319 502.663 C160.669 498.337 165.015 494.007 169.356 489.672 C171.858 487.174 174.362 484.678 176.874 482.189 C179.601 479.486 182.317 476.771 185.031 474.055 C185.82 473.277 186.608 472.5 187.421 471.698 C197.589 461.473 202.928 452.485 203.011 437.977 C203.004 436.643 202.996 435.309 202.988 433.975 C202.99 432.551 202.994 431.128 202.999 429.705 C203.008 425.86 202.999 422.016 202.986 418.171 C202.974 414.141 202.979 410.111 202.981 406.081 C202.981 399.319 202.97 392.557 202.952 385.795 C202.931 377.979 202.927 370.163 202.933 362.347 C202.939 354.819 202.934 347.292 202.922 339.764 C202.918 336.563 202.917 333.363 202.919 330.162 C202.921 326.396 202.913 322.63 202.897 318.864 C202.893 317.482 202.892 316.1 202.895 314.719 C202.898 312.833 202.887 310.947 202.876 309.062 C202.874 308.007 202.872 306.951 202.87 305.864 C202.607 303.035 202.245 301.447 200.616 299.13 C197.054 296.424 192.88 296.849 188.602 296.872 C188.196 296.87 188.196 296.87 186.136 296.861 C183.406 296.851 180.676 296.855 177.945 296.859 C175.989 296.854 174.032 296.849 172.076 296.843 C167.86 296.831 163.644 296.826 159.429 296.825 C152.759 296.823 146.09 296.805 139.421 296.784 C122.852 296.735 106.282 296.704 89.713 296.683 C76.844 296.666 63.975 296.644 51.106 296.6 C44.48 296.578 37.855 296.57 31.229 296.572 C27.099 296.571 22.97 296.557 18.841 296.539 C16.93 296.534 15.02 296.533 13.11 296.538 C10.494 296.544 7.879 296.532 5.264 296.515 C4.515 296.521 3.765 296.528 2.993 296.534 C-3.337 296.461 -9.687 295.283 -14.724 291.263 C-15.251 290.6 -15.779 289.938 -16.322 289.255 C-16.867 288.598 -17.412 287.94 -17.974 287.263 C-21.152 282.456 -21.692 278.116 -21.685 272.45 C-21.687 272.085 -21.687 272.085 -21.698 270.235 C-21.704 268.694 -21.704 267.152 -21.7 265.611 C-21.697 263.269 -21.72 260.929 -21.746 258.587 C-21.748 257.083 -21.749 255.579 -21.748 254.075 C-21.757 253.383 -21.766 252.691 -21.775 251.979 C-21.703 244.257 -18.85 238.595 -13.384 233.13 C-8.055 230.335 -3.867 229.698 2.093 229.751 C2.92 229.747 3.747 229.742 4.6 229.738 C7.358 229.726 10.116 229.736 12.874 229.745 C14.857 229.741 16.84 229.736 18.823 229.729 C23.086 229.717 27.349 229.715 31.613 229.719 C38.352 229.726 45.092 229.71 51.832 229.691 C67.352 229.65 82.872 229.638 98.392 229.627 C112.623 229.617 126.854 229.6 141.085 229.559 C147.787 229.541 154.488 229.537 161.19 229.544 C165.355 229.546 169.52 229.535 173.685 229.521 C175.618 229.517 177.551 229.518 179.484 229.525 C182.121 229.533 184.756 229.523 187.393 229.508 C187.776 229.512 187.776 229.512 189.716 229.529 C194.192 229.481 197.074 228.921 200.616 226.13 C202.951 222.627 202.867 221.242 202.87 217.102 C202.875 215.841 202.881 214.581 202.887 213.282 C202.883 211.882 202.879 210.483 202.875 209.083 C202.877 207.612 202.881 206.14 202.885 204.668 C202.894 200.668 202.891 196.668 202.884 192.668 C202.879 188.485 202.884 184.301 202.887 180.118 C202.891 173.091 202.886 166.064 202.876 159.036 C202.866 150.911 202.869 142.785 202.88 134.659 C202.889 127.686 202.89 120.713 202.885 113.739 C202.882 109.573 202.882 105.407 202.888 101.241 C202.894 97.323 202.89 93.405 202.879 89.488 C202.876 88.049 202.877 86.611 202.881 85.173 C202.887 83.21 202.878 81.248 202.87 79.285 C202.869 78.187 202.868 77.088 202.867 75.956 C202.469 71.48 202.469 71.48 200.616 69.13 C195.48 66.267 191.064 65.702 185.204 65.772 C184.383 65.769 183.563 65.767 182.718 65.764 C179.982 65.76 177.248 65.776 174.513 65.793 C172.546 65.794 170.579 65.793 168.613 65.791 C164.384 65.79 160.155 65.797 155.926 65.811 C149.236 65.832 142.546 65.827 135.855 65.818 C116.832 65.795 97.809 65.807 78.787 65.845 C68.275 65.866 57.765 65.865 47.253 65.842 C40.606 65.828 33.96 65.841 27.313 65.874 C23.173 65.888 19.033 65.878 14.892 65.86 C12.977 65.857 11.062 65.864 9.147 65.882 C-8.302 66.038 -8.302 66.038 -14.849 60.792 C-19.872 55.354 -20.999 49.744 -20.951 42.536 C-20.957 41.745 -20.963 40.954 -20.969 40.139 C-20.977 38.479 -20.973 36.818 -20.961 35.158 C-20.947 32.635 -20.981 30.117 -21.019 27.595 C-21.089 13.057 -21.089 13.057 -16.763 7.516 C-11.435 2.159 -7.713 0.006 0 0 Z M271.211 70.432 C268.182 75.719 269.061 82.406 269.098 88.302 C269.093 89.751 269.086 91.2 269.077 92.65 C269.059 96.575 269.066 100.501 269.078 104.426 C269.089 108.539 269.079 112.653 269.073 116.766 C269.066 123.672 269.075 130.579 269.094 137.485 C269.116 145.464 269.109 153.443 269.087 161.421 C269.069 168.278 269.066 175.135 269.077 181.993 C269.083 186.085 269.084 190.177 269.071 194.27 C269.059 198.118 269.067 201.966 269.09 205.814 C269.095 207.224 269.094 208.634 269.085 210.044 C269.017 222.01 269.017 222.01 271.398 225.891 C274.316 228.837 276.266 230.009 280.432 230.383 C281.529 230.384 282.627 230.386 283.757 230.387 C285.026 230.394 286.294 230.4 287.6 230.407 C289.01 230.404 290.42 230.401 291.831 230.397 C293.326 230.401 294.822 230.406 296.318 230.411 C300.434 230.423 304.55 230.423 308.666 230.421 C313.104 230.42 317.541 230.431 321.978 230.441 C330.673 230.457 339.368 230.463 348.064 230.464 C355.131 230.465 362.198 230.469 369.265 230.475 C389.293 230.493 409.322 230.502 429.35 230.501 C430.43 230.501 431.51 230.501 432.623 230.501 C433.164 230.501 433.164 230.501 435.901 230.5 C453.43 230.499 470.959 230.519 488.488 230.547 C506.479 230.576 524.47 230.589 542.461 230.588 C552.564 230.587 562.668 230.592 572.772 230.614 C581.374 230.632 589.976 230.637 598.579 230.623 C602.969 230.616 607.358 230.616 611.748 230.634 C615.767 230.649 619.785 230.647 623.804 230.629 C625.258 230.626 626.711 230.63 628.165 230.641 C641.981 230.74 641.981 230.74 647.616 226.13 C650.031 222.958 649.871 219.894 649.883 215.988 C649.892 214.728 649.9 213.467 649.909 212.169 C649.908 210.774 649.907 209.38 649.906 207.986 C649.912 206.515 649.919 205.045 649.927 203.575 C649.944 199.583 649.949 195.591 649.95 191.6 C649.952 188.267 649.959 184.935 649.967 181.602 C649.983 173.74 649.988 165.878 649.986 158.016 C649.985 149.905 650.006 141.795 650.038 133.685 C650.064 126.721 650.075 119.757 650.073 112.793 C650.073 108.634 650.079 104.475 650.1 100.316 C650.119 96.405 650.119 92.494 650.105 88.583 C650.103 87.148 650.107 85.713 650.119 84.278 C650.135 82.319 650.123 80.359 650.11 78.399 C650.111 77.303 650.112 76.206 650.113 75.077 C649.48 71.327 648.36 69.744 645.616 67.13 C641.396 65.406 637.829 64.879 633.29 64.875 C632.032 64.87 630.774 64.864 629.478 64.858 C628.089 64.861 626.701 64.865 625.312 64.869 C623.831 64.866 622.35 64.862 620.869 64.858 C616.803 64.847 612.737 64.85 608.671 64.854 C604.284 64.856 599.898 64.847 595.511 64.84 C586.919 64.827 578.327 64.825 569.735 64.828 C562.752 64.829 555.769 64.828 548.786 64.823 C547.792 64.823 546.799 64.822 545.775 64.822 C543.757 64.82 541.738 64.819 539.72 64.818 C520.79 64.807 501.859 64.809 482.929 64.815 C465.607 64.82 448.285 64.809 430.963 64.79 C413.18 64.771 395.396 64.763 377.613 64.766 C367.628 64.768 357.643 64.766 347.658 64.752 C339.158 64.74 330.658 64.738 322.158 64.75 C317.821 64.756 313.484 64.757 309.147 64.745 C305.177 64.735 301.206 64.738 297.236 64.752 C295.8 64.754 294.364 64.752 292.928 64.744 C277.239 64.663 277.239 64.663 271.211 70.432 Z " transform="translate(137.38428562879562,116.87004816532135)"/></g>
</svg>
