<svg xmlns="http://www.w3.org/2000/svg" viewBox="0 0 2250 2250">
  <g fill="#E3BB63"><path d="M0 0 C0.403 0.033 0.403 0.033 2.443 0.201 C15.639 1.515 15.639 1.515 19.832 5.917 C24.029 11.932 24.985 16.44 24.87 23.694 C24.878 24.729 24.886 25.764 24.893 26.831 C24.912 30.305 24.887 33.778 24.863 37.252 C24.868 39.777 24.875 42.301 24.884 44.825 C24.899 50.334 24.895 55.842 24.874 61.35 C24.844 69.597 24.848 77.842 24.859 86.089 C24.877 100.142 24.866 114.196 24.84 128.249 C24.814 142.492 24.801 156.735 24.804 170.979 C24.804 171.878 24.804 172.777 24.804 173.704 C24.805 178.289 24.806 182.875 24.807 187.46 C24.816 220.659 24.795 253.857 24.759 287.055 C24.724 319.935 24.701 352.815 24.694 385.695 C24.694 386.716 24.694 387.737 24.694 388.789 C24.692 398.113 24.69 407.437 24.688 416.761 C24.685 439.941 24.679 463.12 24.672 486.3 C24.672 487.355 24.671 488.411 24.671 489.498 C24.655 540.854 24.617 592.209 24.578 643.565 C24.564 661.388 24.55 679.21 24.537 697.033 C24.536 698.139 24.535 699.244 24.534 700.383 C24.496 751.763 24.474 803.143 24.456 854.522 C24.455 857.858 24.453 861.193 24.452 864.529 C24.444 886.632 24.437 908.735 24.429 930.839 C24.414 974.82 24.398 1018.801 24.38 1062.782 C24.379 1064.876 24.379 1066.971 24.378 1069.065 C24.34 1163.363 24.284 1257.661 24.22 1351.959 C24.22 1352.842 24.219 1353.725 24.218 1354.635 C24.188 1398.798 24.157 1442.962 24.125 1487.125 C27.328 1485.368 30.53 1483.609 33.732 1481.851 C34.633 1481.356 35.534 1480.862 36.463 1480.352 C42.951 1476.788 49.375 1473.139 55.75 1469.375 C57.786 1468.18 59.823 1466.986 61.859 1465.793 C62.887 1465.19 63.915 1464.587 64.975 1463.966 C70.304 1460.852 75.652 1457.769 81 1454.688 C81.54 1454.376 81.54 1454.376 84.272 1452.802 C86.462 1451.54 88.652 1450.278 90.843 1449.016 C96.272 1445.888 101.698 1442.756 107.125 1439.625 C109.292 1438.375 111.458 1437.125 113.625 1435.875 C114.697 1435.256 115.77 1434.638 116.875 1434 C230.625 1368.375 230.625 1368.375 233.875 1366.5 C236.041 1365.251 238.206 1364.001 240.371 1362.752 C245.811 1359.613 251.252 1356.475 256.695 1353.34 C267.187 1347.294 277.67 1341.234 288.125 1335.125 C299.672 1328.378 311.254 1321.692 322.843 1315.016 C328.272 1311.888 333.698 1308.756 339.125 1305.625 C341.292 1304.375 343.458 1303.125 345.625 1301.875 C346.697 1301.256 347.77 1300.638 348.875 1300 C436.625 1249.375 436.625 1249.375 439.875 1247.5 C442.041 1246.251 444.206 1245.001 446.371 1243.752 C451.811 1240.613 457.252 1237.475 462.695 1234.34 C473.187 1228.294 483.67 1222.234 494.125 1216.125 C505.672 1209.378 517.254 1202.692 528.843 1196.016 C534.272 1192.888 539.698 1189.756 545.125 1186.625 C547.292 1185.375 549.458 1184.125 551.625 1182.875 C552.697 1182.256 553.77 1181.638 554.875 1181 C668.625 1115.375 668.625 1115.375 671.875 1113.5 C674.041 1112.251 676.206 1111.001 678.371 1109.752 C683.811 1106.613 689.252 1103.475 694.695 1100.34 C705.187 1094.294 715.67 1088.234 726.125 1082.125 C737.672 1075.378 749.254 1068.692 760.843 1062.016 C767.349 1058.268 773.851 1054.514 780.355 1050.761 C785.882 1047.572 791.411 1044.384 796.941 1041.199 C798.062 1040.554 799.182 1039.908 800.336 1039.243 C802.547 1037.97 804.758 1036.698 806.97 1035.427 C811.751 1032.676 816.513 1029.908 821.219 1027.031 C821.984 1026.567 822.749 1026.103 823.537 1025.624 C824.902 1024.791 826.262 1023.948 827.614 1023.093 C835.889 1018.058 845.861 1016.726 855.355 1018.555 C865.883 1021.853 870.699 1031.817 875.805 1040.804 C877.211 1043.275 878.636 1045.735 880.062 1048.195 C915.51 1109.731 915.51 1109.731 914.125 1125.125 C911.199 1134.878 903.134 1138.457 894.75 1143.062 C892.672 1144.22 890.596 1145.379 888.52 1146.539 C887.457 1147.132 886.394 1147.726 885.299 1148.337 C880.312 1151.146 875.374 1154.04 870.438 1156.938 C861.699 1162.058 852.925 1167.112 844.125 1172.125 C835.431 1177.079 826.76 1182.069 818.125 1187.125 C808.897 1192.529 799.625 1197.852 790.334 1203.146 C782.238 1207.76 774.167 1212.416 766.125 1217.125 C756.897 1222.529 747.625 1227.852 738.334 1233.146 C730.238 1237.76 722.167 1242.416 714.125 1247.125 C704.897 1252.529 695.625 1257.852 686.334 1263.146 C678.238 1267.76 670.167 1272.416 662.125 1277.125 C652.897 1282.529 643.625 1287.852 634.334 1293.146 C626.238 1297.76 618.167 1302.416 610.125 1307.125 C600.897 1312.529 591.625 1317.852 582.334 1323.146 C574.238 1327.76 566.167 1332.416 558.125 1337.125 C548.897 1342.529 539.625 1347.852 530.334 1353.146 C522.238 1357.76 514.167 1362.416 506.125 1367.125 C496.897 1372.529 487.625 1377.852 478.334 1383.146 C470.238 1387.76 462.167 1392.416 454.125 1397.125 C444.897 1402.529 435.625 1407.852 426.334 1413.146 C418.238 1417.76 410.167 1422.416 402.125 1427.125 C392.897 1432.529 383.625 1437.852 374.334 1443.146 C366.238 1447.76 358.167 1452.416 350.125 1457.125 C340.897 1462.529 331.625 1467.852 322.334 1473.146 C314.238 1477.76 306.167 1482.416 298.125 1487.125 C288.897 1492.529 279.625 1497.852 270.334 1503.146 C262.238 1507.76 254.167 1512.416 246.125 1517.125 C236.897 1522.529 227.625 1527.852 218.334 1533.146 C210.238 1537.76 202.167 1542.416 194.125 1547.125 C184.897 1552.529 175.625 1557.852 166.334 1563.146 C158.238 1567.76 150.167 1572.416 142.125 1577.125 C132.897 1582.529 123.625 1587.852 114.334 1593.146 C106.238 1597.76 98.167 1602.416 90.125 1607.125 C80.906 1612.523 71.645 1617.845 62.36 1623.129 C55.913 1626.799 49.48 1630.488 43.086 1634.25 C41.976 1634.902 40.866 1635.555 39.723 1636.227 C37.616 1637.467 35.512 1638.712 33.41 1639.961 C32.478 1640.51 31.546 1641.059 30.586 1641.625 C29.769 1642.11 28.952 1642.594 28.111 1643.094 C26.125 1644.125 26.125 1644.125 24.125 1644.125 C24.125 1766.555 24.125 1888.985 24.125 2015.125 C32.705 2010.175 41.285 2005.225 50.125 2000.125 C54.831 1997.433 59.538 1994.744 64.25 1992.062 C72.903 1987.13 81.53 1982.157 90.125 1977.125 C99.9 1971.403 109.723 1965.767 119.562 1960.156 C127.43 1955.669 135.283 1951.157 143.125 1946.625 C152.11 1941.433 161.111 1936.268 170.125 1931.125 C183.483 1923.502 196.808 1915.821 210.125 1908.125 C224.073 1900.064 238.035 1892.028 252.03 1884.048 C260.088 1879.451 268.119 1874.812 276.125 1870.125 C284.68 1865.118 293.265 1860.163 301.875 1855.25 C302.167 1855.084 302.167 1855.084 303.642 1854.241 C308.399 1851.527 313.158 1848.816 317.917 1846.104 C322.07 1843.737 326.223 1841.37 330.375 1839 C330.959 1838.667 331.542 1838.334 332.143 1837.991 C341.145 1832.851 350.107 1827.648 359.052 1822.411 C367.855 1817.266 376.705 1812.206 385.562 1807.156 C393.43 1802.669 401.283 1798.157 409.125 1793.625 C418.15 1788.409 427.194 1783.226 436.25 1778.062 C444.902 1773.129 453.53 1768.157 462.125 1763.125 C470.68 1758.118 479.265 1753.163 487.875 1748.25 C488.167 1748.084 488.167 1748.084 489.642 1747.241 C494.399 1744.527 499.158 1741.816 503.917 1739.104 C508.07 1736.737 512.223 1734.37 516.375 1732 C516.959 1731.667 517.542 1731.334 518.143 1730.991 C527.145 1725.851 536.107 1720.648 545.052 1715.411 C553.855 1710.266 562.705 1705.206 571.562 1700.156 C579.43 1695.669 587.283 1691.157 595.125 1686.625 C604.11 1681.433 613.111 1676.268 622.125 1671.125 C635.483 1663.502 648.808 1655.821 662.125 1648.125 C676.073 1640.064 690.035 1632.028 704.03 1624.048 C712.088 1619.451 720.119 1614.812 728.125 1610.125 C737.9 1604.403 747.723 1598.767 757.562 1593.156 C765.43 1588.669 773.283 1584.157 781.125 1579.625 C785.458 1577.124 789.791 1574.624 794.125 1572.125 C794.721 1571.781 795.318 1571.437 795.932 1571.082 C799.679 1568.92 803.429 1566.762 807.181 1564.608 C808.934 1563.6 810.686 1562.589 812.438 1561.578 C835.455 1548.383 835.455 1548.383 847.125 1550.125 C850.425 1551.052 853.185 1552.377 856.125 1554.125 C856.494 1554.337 856.494 1554.337 858.359 1555.41 C885.162 1572 900.64 1608.156 907.715 1637.578 C908.305 1641.241 908.589 1644.858 908.75 1648.562 C908.821 1649.3 908.892 1650.038 908.965 1650.799 C909.045 1653.181 908.933 1654.877 908.125 1657.125 C905.488 1659.762 902.391 1661.367 899.125 1663.125 C897.24 1664.236 895.356 1665.35 893.473 1666.465 C891.379 1667.667 889.284 1668.866 887.188 1670.062 C885.46 1671.054 883.732 1672.045 882.004 1673.037 C880.223 1674.059 878.44 1675.08 876.658 1676.101 C871.098 1679.285 865.549 1682.486 860 1685.688 C858.925 1686.307 857.85 1686.927 856.743 1687.566 C845.514 1694.046 834.318 1700.583 823.125 1707.125 C809.717 1714.962 796.293 1722.768 782.836 1730.519 C775.586 1734.698 768.35 1738.902 761.125 1743.125 C751.715 1748.624 742.28 1754.079 732.836 1759.52 C725.585 1763.698 718.35 1767.902 711.125 1772.125 C702.807 1776.986 694.473 1781.816 686.125 1786.625 C673.765 1793.746 661.44 1800.927 649.125 1808.125 C635.717 1815.962 622.293 1823.768 608.836 1831.519 C601.586 1835.698 594.35 1839.902 587.125 1844.125 C577.715 1849.624 568.28 1855.079 558.836 1860.52 C551.585 1864.698 544.35 1868.902 537.125 1873.125 C527.715 1878.624 518.28 1884.079 508.836 1889.52 C501.585 1893.698 494.35 1897.902 487.125 1902.125 C478.807 1906.986 470.473 1911.816 462.125 1916.625 C449.765 1923.746 437.44 1930.927 425.125 1938.125 C411.717 1945.962 398.293 1953.768 384.836 1961.519 C377.586 1965.698 370.35 1969.902 363.125 1974.125 C353.715 1979.624 344.28 1985.079 334.836 1990.52 C327.585 1994.698 320.35 1998.902 313.125 2003.125 C303.715 2008.624 294.28 2014.079 284.836 2019.52 C277.585 2023.698 270.35 2027.902 263.125 2032.125 C254.807 2036.986 246.473 2041.816 238.125 2046.625 C225.765 2053.746 213.44 2060.927 201.125 2068.125 C187.717 2075.962 174.293 2083.768 160.836 2091.519 C153.586 2095.698 146.35 2099.902 139.125 2104.125 C129.715 2109.624 120.28 2115.079 110.836 2120.52 C103.585 2124.698 96.35 2128.902 89.125 2133.125 C79.715 2138.624 70.28 2144.079 60.836 2149.52 C53.585 2153.698 46.35 2157.902 39.125 2162.125 C30.807 2166.986 22.473 2171.816 14.125 2176.625 C1.765 2183.746 -10.56 2190.927 -22.875 2198.125 C-36.272 2205.956 -49.686 2213.756 -63.133 2221.502 C-72.563 2226.937 -81.969 2232.415 -91.367 2237.906 C-92.255 2238.424 -93.143 2238.943 -94.058 2239.477 C-96.107 2240.676 -98.155 2241.88 -100.2 2243.086 C-101.292 2243.728 -102.383 2244.37 -103.508 2245.031 C-104.51 2245.622 -105.511 2246.213 -106.543 2246.822 C-108.875 2248.125 -108.875 2248.125 -109.875 2248.125 C-109.875 1901.625 -109.875 1555.125 -109.875 1198.125 C-125.705 1207.171 -141.526 1216.224 -157.312 1225.344 C-164.744 1229.631 -172.194 1233.884 -179.646 1238.135 C-188.069 1242.942 -196.478 1247.773 -204.875 1252.625 C-213.821 1257.793 -222.779 1262.939 -231.75 1268.062 C-232.33 1268.394 -232.909 1268.725 -233.507 1269.066 C-239.415 1272.44 -245.325 1275.812 -251.237 1279.181 C-254.2 1280.87 -257.163 1282.56 -260.125 1284.25 C-260.416 1284.416 -260.416 1284.416 -261.891 1285.257 C-269.977 1289.873 -278.031 1294.541 -286.062 1299.25 C-295.153 1304.579 -304.321 1309.754 -313.527 1314.88 C-321.627 1319.4 -329.648 1324.045 -337.649 1328.737 C-345.32 1333.231 -353.027 1337.66 -360.75 1342.062 C-369.806 1347.226 -378.85 1352.409 -387.875 1357.625 C-396.82 1362.793 -405.779 1367.939 -414.75 1373.062 C-415.33 1373.394 -415.909 1373.725 -416.507 1374.066 C-422.415 1377.44 -428.325 1380.812 -434.237 1384.181 C-437.2 1385.87 -440.163 1387.56 -443.125 1389.25 C-443.416 1389.416 -443.416 1389.416 -444.891 1390.257 C-452.977 1394.873 -461.031 1399.541 -469.062 1404.25 C-478.153 1409.579 -487.321 1414.754 -496.527 1419.88 C-504.627 1424.4 -512.648 1429.045 -520.649 1433.737 C-528.32 1438.231 -536.027 1442.66 -543.75 1447.062 C-552.806 1452.226 -561.85 1457.409 -570.875 1462.625 C-579.82 1467.793 -588.779 1472.939 -597.75 1478.062 C-598.33 1478.394 -598.909 1478.725 -599.507 1479.066 C-605.415 1482.44 -611.325 1485.812 -617.237 1489.181 C-620.2 1490.87 -623.163 1492.56 -626.125 1494.25 C-626.416 1494.416 -626.416 1494.416 -627.891 1495.257 C-635.977 1499.873 -644.031 1504.541 -652.062 1509.25 C-661.153 1514.579 -670.321 1519.754 -679.527 1524.88 C-687.628 1529.401 -695.65 1534.047 -703.653 1538.739 C-711.283 1543.208 -718.945 1547.618 -726.625 1552 C-727.208 1552.333 -727.791 1552.665 -728.392 1553.008 C-733.149 1555.723 -737.908 1558.434 -742.667 1561.146 C-746.82 1563.513 -750.973 1565.881 -755.125 1568.25 C-755.708 1568.582 -756.29 1568.915 -756.89 1569.257 C-764.977 1573.873 -773.03 1578.541 -781.062 1583.25 C-790.153 1588.579 -799.321 1593.754 -808.527 1598.88 C-816.627 1603.4 -824.648 1608.045 -832.649 1612.737 C-840.32 1617.231 -848.027 1621.66 -855.75 1626.062 C-864.806 1631.226 -873.85 1636.409 -882.875 1641.625 C-891.569 1646.647 -900.271 1651.656 -908.986 1656.642 C-910.749 1657.651 -912.512 1658.662 -914.275 1659.672 C-916.443 1660.911 -918.614 1662.146 -920.787 1663.375 C-922.832 1664.534 -924.869 1665.706 -926.898 1666.893 C-934.081 1671.005 -939.543 1672.861 -947.875 1671.125 C-951.323 1669.401 -953.437 1667.077 -955.875 1664.125 C-956.641 1663.214 -957.406 1662.302 -958.195 1661.363 C-975.891 1639.258 -1011.783 1593.686 -1008.875 1564.125 C-1004.712 1553.605 -993.05 1548.954 -983.812 1543.625 C-981.676 1542.385 -979.539 1541.146 -977.402 1539.906 C-976.318 1539.278 -975.234 1538.651 -974.117 1538.004 C-969.03 1535.055 -963.953 1532.09 -958.875 1529.125 C-956.872 1527.957 -954.87 1526.789 -952.867 1525.621 C-948.892 1523.302 -944.918 1520.982 -940.945 1518.66 C-930.67 1512.657 -920.379 1506.683 -910.062 1500.75 C-901.126 1495.608 -892.236 1490.395 -883.375 1485.125 C-869.211 1476.702 -854.936 1468.477 -840.646 1460.271 C-828.509 1453.298 -816.405 1446.279 -804.375 1439.125 C-790.211 1430.702 -775.936 1422.477 -761.646 1414.271 C-749.509 1407.298 -737.405 1400.279 -725.375 1393.125 C-711.211 1384.702 -696.936 1376.477 -682.646 1368.271 C-669.412 1360.668 -656.235 1352.983 -643.121 1345.176 C-634.508 1340.061 -625.827 1335.075 -617.117 1330.126 C-608.441 1325.194 -599.826 1320.168 -591.25 1315.062 C-577.13 1306.656 -562.896 1298.454 -548.646 1290.271 C-536.509 1283.298 -524.405 1276.279 -512.375 1269.125 C-498.211 1260.702 -483.936 1252.477 -469.646 1244.271 C-457.509 1237.298 -445.405 1230.279 -433.375 1223.125 C-419.211 1214.702 -404.936 1206.477 -390.646 1198.271 C-378.509 1191.298 -366.405 1184.279 -354.375 1177.125 C-340.211 1168.702 -325.936 1160.477 -311.646 1152.271 C-299.509 1145.298 -287.405 1138.279 -275.375 1131.125 C-261.211 1122.702 -246.936 1114.477 -232.646 1106.271 C-220.509 1099.298 -208.405 1092.279 -196.375 1085.125 C-182.163 1076.674 -167.844 1068.415 -153.5 1060.19 C-151.228 1058.887 -148.957 1057.583 -146.686 1056.278 C-144.585 1055.07 -142.482 1053.865 -140.379 1052.662 C-138.415 1051.533 -136.466 1050.376 -134.535 1049.192 C-131.889 1047.622 -129.217 1046.408 -126.374 1045.234 C-120.575 1042.625 -114.448 1039.827 -111.84 1033.69 C-110.14 1026.181 -110.572 1018.478 -110.756 1010.831 C-110.752 1008.203 -110.742 1005.576 -110.723 1002.949 C-110.695 997.216 -110.735 991.487 -110.817 985.756 C-110.94 977.16 -110.957 968.567 -110.953 959.971 C-110.948 945.312 -111.025 930.655 -111.147 915.997 C-111.324 894.585 -111.382 873.173 -111.417 851.76 C-111.432 842.973 -111.45 834.185 -111.469 825.397 C-111.471 824.413 -111.473 823.43 -111.475 822.416 C-111.508 807.073 -111.561 791.73 -111.624 776.387 C-111.878 714.243 -111.866 652.102 -111.701 589.958 C-111.691 586.402 -111.682 582.846 -111.673 579.291 C-111.617 557.903 -111.559 536.515 -111.497 515.128 C-111.4 481.993 -111.316 448.857 -111.241 415.722 C-111.236 413.391 -111.231 411.059 -111.226 408.727 C-111.205 399.488 -111.184 390.249 -111.163 381.01 C-111.128 365.22 -111.091 349.43 -111.054 333.641 C-111.051 332.547 -111.048 331.454 -111.046 330.328 C-111.03 323.79 -111.015 317.251 -110.999 310.713 C-110.939 285.735 -110.88 260.758 -110.827 235.78 C-110.825 234.891 -110.823 234.001 -110.821 233.084 C-110.812 228.683 -110.802 224.283 -110.793 219.882 C-110.731 190.563 -110.661 161.243 -110.57 131.924 C-110.526 117.531 -110.489 103.138 -110.465 88.745 C-110.448 79.368 -110.421 69.991 -110.385 60.614 C-110.365 55.387 -110.349 50.159 -110.347 44.931 C-110.345 40.268 -110.329 35.606 -110.302 30.944 C-110.295 29.279 -110.293 27.614 -110.297 25.949 C-110.3 23.707 -110.286 21.466 -110.267 19.225 C-110.264 17.988 -110.26 16.751 -110.257 15.476 C-109.682 10.43 -107.785 7.179 -104.5 3.375 C-83.942 -11.969 -24.444 -2.163 0 0 Z " transform="translate(1112.875,1.875)"/></g>
</svg>
