<svg xmlns="http://www.w3.org/2000/svg" viewBox="0 0 1200 1200">
  <g fill="#E3BB63"><path d="M0 0 C0.819 -0.008 1.638 -0.016 2.481 -0.024 C4.213 -0.038 5.944 -0.049 7.676 -0.057 C9.437 -0.068 11.198 -0.089 12.959 -0.118 C15.515 -0.161 18.069 -0.177 20.625 -0.188 C21.014 -0.196 21.014 -0.196 22.981 -0.241 C28.635 -0.218 32.979 0.863 37.578 4.238 C42.199 9.603 43.308 14.482 43.217 21.401 C43.222 21.845 43.222 21.845 43.243 24.094 C43.265 27.055 43.251 30.014 43.238 32.975 C43.246 35.104 43.257 37.233 43.269 39.362 C43.297 45.13 43.295 50.898 43.287 56.666 C43.284 62.699 43.309 68.731 43.331 74.764 C43.368 86.181 43.381 97.599 43.384 109.017 C43.388 122.018 43.421 135.019 43.457 148.021 C43.528 174.76 43.565 201.499 43.578 228.238 C48.405 227.857 53.23 227.469 58.056 227.077 C59.69 226.945 61.323 226.814 62.957 226.685 C101.494 223.639 139.815 216.24 176.578 204.238 C177.163 204.049 177.163 204.049 180.122 203.09 C197.667 197.358 214.736 190.788 231.578 183.238 C232.5 182.826 233.422 182.414 234.373 181.989 C260.782 170.074 286.007 155.068 309.578 138.238 C309.961 137.965 309.961 137.965 311.896 136.585 C322.01 129.335 331.692 121.791 341.033 113.573 C343.411 111.519 345.872 109.572 348.328 107.613 C352.856 103.943 356.958 99.993 360.996 95.793 C363.081 93.73 365.191 91.828 367.414 89.922 C371.559 86.329 375.301 82.457 379.016 78.426 C379.667 77.724 380.319 77.022 380.991 76.298 C382.858 74.283 384.719 72.261 386.578 70.238 C387.016 69.764 387.016 69.764 389.23 67.363 C394.575 61.502 399.646 55.45 404.578 49.238 C404.807 48.951 404.807 48.951 405.967 47.496 C411.564 40.436 416.941 33.281 421.91 25.762 C422.281 25.203 422.653 24.644 423.035 24.068 C424.876 21.293 426.696 18.51 428.49 15.705 C433.088 8.719 437.124 4.005 445.195 1.391 C455.995 0.363 465.455 6.463 474.891 11.113 C475.948 11.617 477.006 12.121 478.096 12.641 C485.11 16.102 490.79 19.521 493.578 27.238 C495.037 36.533 493.115 42.844 487.824 50.445 C486.409 52.482 485.043 54.548 483.676 56.617 C473.797 71.437 463.043 85.609 451.578 99.238 C451.131 99.77 450.685 100.301 450.225 100.849 C438.992 114.183 427.134 126.774 414.828 139.113 C414.285 139.66 413.741 140.206 413.181 140.769 C407.16 146.812 401.083 152.712 394.578 158.238 C393.421 159.259 392.266 160.283 391.113 161.309 C382.637 168.789 373.888 175.796 364.83 182.557 C363.3 183.699 361.773 184.845 360.248 185.994 C294.104 235.819 216.683 268.948 78.078 294.051 C77.552 294.107 77.552 294.107 74.89 294.39 C64.118 295.433 53.427 295.745 42.578 296.238 C42.908 348.048 43.238 399.858 43.578 453.238 C50.161 453.24 50.161 453.24 83.475 453.251 C125.583 453.267 167.692 453.309 209.801 453.365 C216.34 453.374 222.879 453.382 229.418 453.391 C230.069 453.392 230.069 453.392 233.363 453.396 C254.451 453.423 275.54 453.432 296.628 453.434 C318.261 453.437 339.894 453.459 361.527 453.499 C374.88 453.523 388.232 453.532 401.584 453.522 C410.736 453.516 419.888 453.529 429.04 453.557 C434.323 453.572 439.606 453.579 444.889 453.565 C449.725 453.552 454.561 453.562 459.397 453.59 C461.147 453.596 462.897 453.594 464.647 453.582 C480.839 453.483 480.839 453.483 487.578 459.238 C492.386 464.226 493.328 469.562 493.242 476.27 C493.247 477.105 493.252 477.94 493.257 478.801 C493.26 480.556 493.251 482.31 493.23 484.065 C493.203 486.732 493.23 489.395 493.262 492.062 C493.258 493.777 493.252 495.492 493.242 497.207 C493.252 497.994 493.262 498.78 493.273 499.591 C493.151 505.409 491.676 509.988 487.578 514.238 C479.92 520.779 471.597 519.941 462.064 519.878 C460.259 519.884 458.453 519.892 456.648 519.903 C451.695 519.925 446.742 519.917 441.789 519.903 C436.445 519.894 431.101 519.913 425.756 519.929 C416.5 519.953 407.243 519.959 397.987 519.952 C384.603 519.942 371.22 519.96 357.837 519.984 C336.123 520.023 314.409 520.04 292.695 520.043 C271.603 520.045 250.51 520.058 229.418 520.086 C228.118 520.087 226.818 520.089 225.478 520.091 C218.955 520.099 212.432 520.108 205.909 520.117 C151.799 520.189 97.689 520.221 43.578 520.238 C43.578 570.068 43.578 619.898 43.578 671.238 C58.098 672.558 72.618 673.878 87.578 675.238 C144.029 682.811 199.402 695.958 251.578 719.238 C252.622 719.702 253.666 720.166 254.742 720.644 C284.733 734.037 313.57 749.486 340.578 768.238 C340.905 768.463 340.905 768.463 342.557 769.598 C361.345 782.523 379.216 796.605 396.066 811.973 C397.408 813.183 398.756 814.388 400.138 815.553 C406.838 821.245 412.986 827.495 419.187 833.717 C421.136 835.671 423.09 837.62 425.045 839.568 C431.101 845.621 437.069 851.676 442.578 858.238 C443.527 859.322 444.477 860.404 445.43 861.484 C452.663 869.778 459.438 878.364 466.032 887.173 C467.477 889.103 468.931 891.026 470.387 892.949 C475.74 900.08 480.759 907.402 485.641 914.863 C486.201 915.717 486.762 916.571 487.34 917.45 C487.863 918.26 488.387 919.069 488.926 919.902 C489.39 920.619 489.854 921.335 490.332 922.073 C493.764 928.037 494.51 933.447 493.578 940.238 C490.518 947.851 484.687 951.88 477.508 955.438 C476.364 956.007 475.221 956.576 474.043 957.162 C472.858 957.744 471.674 958.326 470.453 958.926 C469.248 959.525 468.044 960.124 466.84 960.725 C458.608 964.803 452.844 966.969 443.578 966.238 C434.7 963.114 430.355 955.22 425.391 947.738 C419.726 939.322 413.935 931.149 407.578 923.238 C407.081 922.613 406.584 921.987 406.072 921.342 C399.709 913.336 393.209 905.541 386.211 898.082 C384.196 895.906 382.25 893.707 380.316 891.461 C376.286 886.835 371.989 882.502 367.641 878.176 C366.881 877.412 366.121 876.648 365.338 875.861 C360.581 871.112 355.677 866.616 350.578 862.238 C349.422 861.217 348.267 860.193 347.113 859.168 C337.932 851.065 328.408 843.537 318.578 836.238 C317.868 835.707 317.158 835.176 316.427 834.629 C240.356 777.895 139.179 739.986 43.578 740.238 C43.577 741.336 43.575 742.433 43.574 743.564 C43.537 770.254 43.478 796.944 43.394 823.634 C43.354 836.541 43.322 849.448 43.307 862.355 C43.294 873.604 43.267 884.852 43.224 896.101 C43.201 902.058 43.185 908.015 43.186 913.972 C43.187 919.578 43.169 925.184 43.137 930.79 C43.128 932.848 43.127 934.906 43.132 936.965 C43.139 939.774 43.121 942.583 43.097 945.392 C43.105 946.208 43.113 947.023 43.121 947.863 C43.041 953.112 42.009 956.05 38.578 960.238 C32.94 965.443 28.03 966.548 20.496 966.539 C20.11 966.541 20.11 966.541 18.154 966.552 C16.522 966.558 14.891 966.558 13.26 966.554 C10.784 966.551 8.309 966.574 5.834 966.6 C4.242 966.602 2.65 966.603 1.059 966.602 C0.693 966.606 0.693 966.606 -1.155 966.629 C-7.13 966.577 -12.765 965.456 -17.48 961.52 C-17.936 960.932 -18.391 960.344 -18.859 959.738 C-19.332 959.15 -19.806 958.563 -20.293 957.957 C-23.001 953.834 -22.559 949.483 -22.542 944.753 C-22.543 944.315 -22.543 944.315 -22.545 942.097 C-22.546 939.149 -22.541 936.201 -22.535 933.253 C-22.535 931.144 -22.535 929.036 -22.536 926.927 C-22.536 921.192 -22.53 915.456 -22.523 909.721 C-22.517 903.731 -22.516 897.742 -22.515 891.752 C-22.512 880.405 -22.504 869.058 -22.494 857.71 C-22.483 844.794 -22.477 831.878 -22.472 818.961 C-22.462 792.387 -22.444 765.813 -22.422 739.238 C-28.917 739.891 -35.412 740.551 -41.907 741.217 C-44.107 741.441 -46.308 741.664 -48.509 741.885 C-107.663 747.833 -165.791 762.205 -219.422 788.238 C-220.414 788.714 -221.406 789.189 -222.428 789.679 C-256.643 806.122 -288.335 826.864 -317.422 851.238 C-318.02 851.737 -318.617 852.235 -319.233 852.749 C-335.848 866.648 -352.612 881.468 -366.586 898.066 C-368.097 899.854 -369.635 901.604 -371.195 903.348 C-386.14 920.144 -399.805 938.525 -411.797 957.551 C-414.828 962.174 -418.133 964.475 -423.422 966.238 C-432.191 967.31 -438.349 965.059 -446.047 961.051 C-447.019 960.568 -447.991 960.085 -448.992 959.588 C-451.821 958.172 -454.624 956.714 -457.422 955.238 C-457.849 955.018 -457.849 955.018 -460.013 953.904 C-464.058 951.762 -467.305 949.993 -469.922 946.113 C-470.386 945.451 -470.85 944.788 -471.328 944.105 C-473.902 939.711 -474.172 935.177 -473.422 930.238 C-470.165 921.514 -464.738 913.815 -459.422 906.238 C-459.035 905.684 -458.648 905.129 -458.249 904.558 C-446.151 887.261 -433.227 870.323 -418.836 854.863 C-417.57 853.487 -416.31 852.105 -415.102 850.678 C-409.287 843.822 -402.878 837.544 -396.516 831.202 C-394.489 829.181 -392.468 827.154 -390.447 825.127 C-384.278 818.954 -378.127 812.835 -371.422 807.238 C-370.412 806.362 -369.402 805.484 -368.395 804.605 C-359.664 797.129 -350.615 790.134 -341.422 783.238 C-340.65 782.656 -339.878 782.074 -339.083 781.474 C-328.154 773.242 -317.057 765.44 -305.422 758.238 C-304.653 757.762 -303.884 757.285 -303.092 756.794 C-290.126 748.803 -276.889 741.35 -263.422 734.238 C-262.559 733.781 -261.697 733.324 -260.808 732.853 C-195.656 698.567 -123.005 680.453 -50.047 673.426 C-48.764 673.302 -47.482 673.177 -46.161 673.05 C-38.145 672.333 -30.563 672.238 -22.422 672.238 C-22.752 622.078 -23.082 571.918 -23.422 520.238 C-30.002 520.239 -30.002 520.239 -63.302 520.242 C-105.4 520.241 -147.497 520.211 -189.594 520.162 C-196.131 520.155 -202.669 520.148 -209.207 520.141 C-210.508 520.139 -211.81 520.138 -213.151 520.136 C-234.232 520.114 -255.313 520.113 -276.395 520.119 C-298.022 520.126 -319.649 520.109 -341.277 520.072 C-354.625 520.049 -367.972 520.045 -381.32 520.063 C-390.47 520.073 -399.62 520.062 -408.77 520.033 C-414.052 520.017 -419.332 520.011 -424.613 520.031 C-429.449 520.049 -434.284 520.039 -439.12 520.008 C-440.869 520.001 -442.617 520.005 -444.366 520.02 C-460.116 520.143 -460.116 520.143 -466.826 514.898 C-471.997 509.52 -473.026 503.804 -472.918 496.574 C-472.919 495.779 -472.921 494.983 -472.922 494.163 C-472.921 492.494 -472.909 490.825 -472.888 489.156 C-472.859 486.613 -472.868 484.071 -472.881 481.527 C-472.875 479.897 -472.866 478.267 -472.855 476.637 C-472.858 475.883 -472.861 475.13 -472.864 474.354 C-472.754 468.144 -471.127 464.22 -467.109 459.551 C-461.99 455.145 -457.533 453.792 -450.874 453.869 C-450.131 453.866 -449.388 453.862 -448.623 453.859 C-446.131 453.851 -443.64 453.864 -441.148 453.878 C-439.345 453.876 -437.541 453.874 -435.737 453.87 C-430.78 453.863 -425.822 453.875 -420.865 453.89 C-415.519 453.903 -410.174 453.899 -404.828 453.896 C-395.566 453.895 -386.304 453.904 -377.042 453.921 C-363.651 453.945 -350.259 453.953 -336.868 453.957 C-315.142 453.964 -293.416 453.984 -271.69 454.012 C-250.584 454.039 -229.478 454.061 -208.372 454.073 C-207.071 454.074 -205.77 454.075 -204.43 454.076 C-197.904 454.08 -191.379 454.084 -184.854 454.087 C-130.71 454.118 -76.566 454.174 -22.422 454.238 C-22.422 402.098 -22.422 349.958 -22.422 296.238 C-30.012 295.908 -37.602 295.578 -45.422 295.238 C-51.188 294.744 -56.926 294.216 -62.672 293.551 C-63.046 293.508 -63.046 293.508 -64.941 293.294 C-144.252 284.225 -221.592 259.937 -290.422 219.238 C-291.205 218.779 -291.989 218.32 -292.796 217.846 C-322.908 200.127 -351.103 179.041 -376.91 155.504 C-378.264 154.282 -379.625 153.067 -381.017 151.888 C-387.393 146.458 -393.269 140.542 -399.177 134.614 C-400.98 132.805 -402.79 131.001 -404.6 129.197 C-410.42 123.38 -416.115 117.535 -421.422 111.238 C-422.371 110.155 -423.321 109.073 -424.273 107.992 C-431.454 99.76 -438.184 91.242 -444.729 82.498 C-446.456 80.193 -448.195 77.897 -449.934 75.602 C-474.759 42.597 -474.759 42.597 -473.422 28.238 C-471.569 20.902 -466.618 17.937 -460.422 14.238 C-456.367 12.03 -452.251 9.965 -448.109 7.926 C-447.039 7.389 -445.968 6.852 -444.865 6.299 C-436.947 2.367 -430.753 -0.539 -421.859 2.426 C-415.476 5.792 -411.889 9.54 -408.172 15.676 C-407.396 16.926 -406.617 18.175 -405.836 19.422 C-405.439 20.056 -405.043 20.69 -404.634 21.343 C-392.504 40.31 -377.568 57.653 -362.422 74.238 C-361.57 75.183 -360.718 76.128 -359.84 77.102 C-351.476 86.349 -342.9 95.46 -333.391 103.547 C-331.144 105.477 -328.976 107.482 -326.797 109.488 C-321.194 114.536 -315.307 119.161 -309.334 123.758 C-307.409 125.248 -305.499 126.755 -303.59 128.266 C-233.533 183.287 -145.696 216.82 -40.527 226.852 C-38.858 226.988 -37.189 227.124 -35.52 227.26 C-31.487 227.59 -27.455 227.915 -23.422 228.238 C-23.421 227.687 -23.421 227.687 -23.415 224.897 C-23.356 198.082 -23.28 171.267 -23.186 144.452 C-23.141 131.484 -23.102 118.516 -23.075 105.549 C-23.052 94.247 -23.019 82.946 -22.973 71.645 C-22.949 65.66 -22.931 59.675 -22.924 53.69 C-22.918 48.058 -22.898 42.425 -22.868 36.793 C-22.859 34.725 -22.855 32.657 -22.857 30.589 C-22.859 27.767 -22.842 24.945 -22.821 22.122 C-22.823 21.713 -22.823 21.713 -22.835 19.64 C-22.765 13.949 -21.675 9.732 -17.738 5.375 C-17.159 4.897 -16.581 4.419 -15.984 3.926 C-15.408 3.435 -14.832 2.944 -14.238 2.438 C-9.964 -0.385 -4.952 0.047 0 0 Z " transform="translate(589.421875,118.76171875)"/></g>
</svg>
