<?xml version="1.0" encoding="UTF-8"?>
<svg id="Layer_2" data-name="Layer 2" xmlns="http://www.w3.org/2000/svg" viewBox="0 0 72 71.96">
  <defs>
    <style>
      .cls-1 {
        fill: #E3BB63;
      }
    </style>
  </defs>
  <g id="Layer_2-2" data-name="Layer 2">
    <path class="cls-1" d="M72,3.24c0-1.79-1.45-3.24-3.24-3.24h-32.76s-32.76,0-32.76,0C1.45,0,0,1.45,0,3.24v32.75h.01v32.73c0,1.79,1.45,3.24,3.24,3.24h32.76s32.73,0,32.73,0c1.79,0,3.24-1.45,3.24-3.24v-32.72h.01V3.24ZM11.24,4.96h24.76s24.77,0,24.77,0c1.06,0,1.59,1.28.84,2.03l-9.25,9.25c-.58.58-1.37.91-2.19.91h-14.16s-14.17,0-14.17,0c-.82,0-1.61-.33-2.19-.91L10.39,6.99c-.75-.75-.22-2.03.84-2.03ZM43.82,49.3c2.32-1.35,4.26-3.29,5.62-5.62.15-.26.55-.14.55.15v4.8c0,.67-.54,1.21-1.21,1.21h-4.8c-.3,0-.41-.4-.15-.55ZM38.89,46.04c-.19.05-.37-.09-.37-.29v-7.08c0-.16.13-.29.29-.29h7.08c.19,0,.34.18.29.37-.99,3.52-3.77,6.3-7.29,7.29ZM25.82,38.75c-.05-.19.09-.37.29-.37h7.08c.16,0,.29.13.29.29v7.08c0,.19-.18.34-.37.29-3.52-.99-6.3-3.77-7.29-7.29ZM28.03,49.85h-4.8c-.67,0-1.21-.54-1.21-1.21v-4.8c0-.3.4-.41.55-.15,1.35,2.32,3.29,4.26,5.62,5.62.26.15.14.55-.15.55ZM28.17,22.65c-2.32,1.35-4.26,3.29-5.62,5.62-.15.26-.55.14-.55-.15v-4.8c0-.67.54-1.21,1.21-1.21h4.8c.3,0,.41.4.15.55ZM33.1,25.91c.19-.05.37.09.37.29v7.08c0,.16-.13.29-.29.29h-7.08c-.19,0-.34-.18-.29-.37.99-3.52,3.77-6.3,7.29-7.29ZM46.19,33.21c.05.19-.09.37-.29.37h-7.08c-.16,0-.29-.13-.29-.29v-7.08c0-.19.18-.34.37-.29,3.52.99,6.3,3.77,7.29,7.29ZM43.99,22.11h4.8c.67,0,1.21.54,1.21,1.21v4.8c0,.3-.4.41-.55.15-1.35-2.32-3.29-4.26-5.62-5.62-.26-.15-.14-.55.15-.55ZM4.97,60.75v-24.78h-.01V11.21c0-.97,1.18-1.46,1.86-.77l9.14,9.14c.69.69,1.08,1.64,1.08,2.62v13.8h.01v13.78c0,.98-.39,1.92-1.08,2.62l-9.14,9.14c-.69.69-1.86.2-1.86-.77ZM60.75,67h-24.77s-24.74,0-24.74,0c-1.06,0-1.59-1.28-.84-2.03l9.25-9.25c.58-.58,1.37-.91,2.19-.91h14.17s14.14,0,14.14,0c.82,0,1.61.33,2.19.91l9.25,9.25c.75.75.22,2.03-.84,2.03ZM67.03,60.75c0,.97-1.18,1.46-1.86.77l-9.14-9.14c-.69-.69-1.08-1.64-1.08-2.62v-13.77h.01v-13.8c0-.98.39-1.92,1.08-2.62l9.14-9.14c.69-.69,1.86-.2,1.86.77v24.76h-.01v24.78Z"/>
  </g>
</svg>