<?xml version="1.0" encoding="UTF-8"?>
<svg id="Layer_2" data-name="Layer 2" xmlns="http://www.w3.org/2000/svg" viewBox="0 0 71.79 72">
  <defs>
    <style>
      .cls-1 {
        fill: #E3BB63;
      }
    </style>
  </defs>
  <g id="Layer_1-2" data-name="Layer 1">
    <path class="cls-1" d="M71.79,35.89C71.79,15.9,55.44-.28,35.38,0,15.93.28.11,16.24,0,35.7c-.1,19.28,15,35.06,34.02,36.04.22.16.49.26.78.26h2.25c.3,0,.57-.1.79-.27,18.92-1.01,33.95-16.67,33.95-35.84ZM66.04,34h-26.59c-.59,0-1.07-.48-1.07-1.07V5.61c0-.46.41-.82.87-.77,14.69,1.57,26.36,13.37,27.75,28.11.05.56-.39,1.05-.95,1.05ZM33.48,5.71v26.97c0,.73-.59,1.31-1.31,1.31H5.74c-.56,0-.99-.48-.94-1.04,1.38-14.73,13.04-26.53,27.71-28.11.52-.06.97.34.97.86ZM5.84,38.89h26.36c.71,0,1.29.58,1.29,1.29v26.16c0,.38-.32.68-.7.64-14.43-1.43-26-12.73-27.86-27.04-.07-.55.36-1.05.92-1.05ZM38.37,65.97v-25.97c0-.62.5-1.12,1.12-1.12h26.38c.6,0,1.06.53.98,1.12-1.87,14.12-13.21,25.3-27.41,26.92-.57.06-1.07-.38-1.07-.95Z"/>
  </g>
</svg>