<?xml version="1.0" encoding="UTF-8"?>
<svg id="Layer_2" data-name="Layer 2" xmlns="http://www.w3.org/2000/svg" viewBox="0 0 70.09 73.72">
  <defs>
    <style>
      .cls-1 {
        fill: #E3BB63;
      }
    </style>
  </defs>
  <g id="Layer_2-2" data-name="Layer 2">
    <g>
      <path class="cls-1" d="M34.95,4.78c5.64,0,10.23,4.59,10.23,10.23s-4.59,10.23-10.23,10.23-10.23-4.59-10.23-10.23,4.59-10.23,10.23-10.23M34.95,0c-8.29,0-15.01,6.72-15.01,15.01s6.72,15.01,15.01,15.01,15.01-6.72,15.01-15.01S43.24,0,34.95,0h0Z"/>
      <rect class="cls-1" x="32.54" y="36.17" width="5.01" height="70.09" rx="2.51" ry="2.51" transform="translate(106.26 36.17) rotate(90)"/>
      <path class="cls-1" d="M69.11,16.88c0-.52-.02-1.04-.04-1.56h-4.25c.02.46.04.93.04,1.4,0,16.51-13.39,29.9-29.9,29.9S5.05,33.24,5.05,16.72c0-.47.01-.93.04-1.4H.84c-.02.52-.04,1.03-.04,1.56,0,17.99,13.91,32.73,31.56,34.06v12.12c0,.83.67,1.51,1.51,1.51h2c.83,0,1.51-.67,1.51-1.51v-12.1c17.74-1.24,31.74-16.02,31.74-34.07Z"/>
    </g>
  </g>
</svg>