<svg xmlns="http://www.w3.org/2000/svg" viewBox="0 0 600 600">
  <g fill="#4A2F1B"><path d="M0 0 C2.416 1.915 4.752 3.896 7.078 5.918 C7.371 6.14 7.371 6.14 8.855 7.262 C26.383 20.789 36.476 44.023 40.391 65.23 C43.84 92.423 37.995 119.091 21.454 141.148 C4.725 162.675 -18.839 176.17 -45.922 179.918 C-49.844 180.199 -53.741 180.252 -57.672 180.23 C-58.721 180.226 -59.77 180.221 -60.851 180.216 C-87.268 179.819 -110.605 168.637 -129.609 150.668 C-149.752 129.566 -157.55 103.898 -157.199 75.152 C-156.401 49.077 -143.716 25.039 -125.078 7.195 C-90.044 -23.271 -38.273 -27.272 0 0 Z M-108.391 37.703 C-120.445 52.952 -125.85 70.616 -123.922 89.918 C-121.108 108.367 -111.415 123.561 -96.793 134.918 C-82.024 145.206 -64.621 149.196 -46.873 146.621 C-28.89 143.309 -13.416 132.907 -2.926 118.082 C6.658 102.949 10.709 85.645 6.998 67.952 C2.718 49.91 -7.267 35.034 -22.922 24.918 C-50.877 7.989 -86.534 13.045 -108.391 37.703 Z " transform="translate(357.921875,76.08203125)"/>
    <path d="M0 0 C9.57 0 19.14 0 29 0 C29.11 2.09 29.219 4.179 29.332 6.332 C32.444 63.523 50.739 115.519 94 155 C98.52 158.859 103.227 162.462 108 166 C109.039 166.772 110.078 167.544 111.148 168.34 C152.436 197.927 204.881 210.136 255.027 201.91 C302.517 193.443 346.117 169.297 376 131 C376.432 130.45 376.864 129.899 377.31 129.332 C384.997 119.466 391.272 109.11 397 98 C397.165 97.683 397.165 97.683 398 96.08 C406.394 79.742 411.643 62.01 415 44 C415.214 42.882 415.428 41.765 415.648 40.613 C417.87 27.269 418 13.502 418 0 C427.9 0 437.8 0 448 0 C448.939 65.427 428.453 123.34 382.522 170.766 C375.686 177.692 368.544 183.954 360.716 189.732 C359.014 190.989 357.33 192.267 355.645 193.547 C346.609 200.306 337.001 205.802 327 211 C326.267 211.385 325.534 211.771 324.779 212.168 C301.018 224.523 274.396 232.753 247.618 234.555 C246.374 234.64 245.13 234.725 243.848 234.812 C242.908 234.874 241.968 234.936 241 235 C241.003 235.494 241.003 235.494 241.02 237.997 C241.081 247.325 241.126 256.653 241.155 265.981 C241.171 270.777 241.192 275.572 241.226 280.368 C241.259 284.997 241.277 289.627 241.285 294.256 C241.29 296.021 241.301 297.785 241.317 299.55 C241.339 302.025 241.342 304.5 241.341 306.975 C241.351 307.702 241.362 308.428 241.373 309.177 C241.345 313.857 240.436 317.012 238 321 C233.761 325.142 229.237 324.515 223.625 324.5 C222.692 324.528 221.758 324.557 220.797 324.586 C216.26 324.599 213.009 324.525 209.398 321.594 C205.619 317.507 205.861 314.58 205.886 309.246 C205.886 308.446 205.886 307.645 205.886 306.821 C205.887 304.17 205.895 301.519 205.902 298.867 C205.904 297.032 205.906 295.196 205.907 293.36 C205.91 288.524 205.92 283.687 205.931 278.851 C205.942 273.917 205.946 268.984 205.951 264.051 C205.962 254.367 205.979 244.684 206 235 C205.061 234.939 204.122 234.878 203.154 234.816 C201.911 234.732 200.667 234.648 199.385 234.561 C198.158 234.48 196.93 234.398 195.665 234.314 C190.297 233.854 185.084 232.903 179.812 231.812 C178.74 231.593 177.667 231.374 176.561 231.148 C124.192 220.063 74.162 188.823 43 145 C42.529 144.347 42.059 143.693 41.574 143.02 C19.748 112.446 6.559 78.029 1 41 C0.893 40.321 0.786 39.643 0.677 38.944 C-0.38 31.158 -0.108 23.277 -0.062 15.438 C-0.057 13.937 -0.053 12.436 -0.049 10.936 C-0.039 7.29 -0.019 3.645 0 0 Z " transform="translate(76.0,158.0)"/>
    <path d="M0 0 C0.751 -0.002 1.502 -0.004 2.275 -0.006 C4.805 -0.012 7.335 -0.01 9.865 -0.009 C11.691 -0.012 13.518 -0.015 15.344 -0.018 C20.374 -0.026 25.405 -0.028 30.435 -0.029 C35.856 -0.03 41.276 -0.038 46.697 -0.045 C58.554 -0.058 70.411 -0.064 82.269 -0.069 C89.669 -0.072 97.069 -0.076 104.469 -0.08 C124.947 -0.092 145.425 -0.103 165.904 -0.106 C167.215 -0.106 168.526 -0.107 169.877 -0.107 C171.191 -0.107 172.505 -0.107 173.859 -0.107 C176.522 -0.108 179.185 -0.108 181.848 -0.109 C182.509 -0.109 183.169 -0.109 183.849 -0.109 C204.601 -0.113 225.352 -0.127 246.103 -0.15 C269.41 -0.175 292.716 -0.19 316.023 -0.192 C328.366 -0.192 340.709 -0.198 353.052 -0.216 C363.56 -0.232 374.068 -0.237 384.576 -0.229 C389.94 -0.225 395.304 -0.226 400.667 -0.24 C405.575 -0.252 410.482 -0.251 415.39 -0.239 C417.168 -0.237 418.946 -0.24 420.724 -0.249 C423.136 -0.26 425.548 -0.253 427.96 -0.241 C428.654 -0.248 429.348 -0.256 430.063 -0.264 C434.621 -0.214 437.741 0.724 441.606 3.131 C444.877 7.83 445.069 12.05 444.981 17.569 C444.993 18.294 445.004 19.019 445.016 19.766 C444.988 24.913 444.13 28.615 441.606 33.131 C438.086 35.656 434.309 35.412 430.147 35.386 C429.389 35.389 428.631 35.392 427.85 35.396 C425.297 35.404 422.743 35.398 420.189 35.392 C418.345 35.395 416.502 35.399 414.658 35.404 C409.58 35.414 404.502 35.412 399.424 35.408 C393.953 35.405 388.481 35.414 383.009 35.422 C372.285 35.434 361.561 35.436 350.837 35.434 C342.123 35.432 333.41 35.434 324.696 35.438 C324.077 35.438 324.077 35.438 320.943 35.44 C318.427 35.441 315.911 35.442 313.395 35.443 C292.475 35.453 271.555 35.454 250.635 35.448 C249.97 35.448 249.304 35.448 248.618 35.448 C247.272 35.447 245.926 35.447 244.581 35.447 C223.635 35.441 202.689 35.449 181.743 35.468 C158.219 35.488 134.695 35.499 111.172 35.495 C98.713 35.493 86.254 35.496 73.795 35.51 C63.189 35.522 52.583 35.523 41.978 35.511 C36.563 35.505 31.149 35.504 25.735 35.516 C20.783 35.527 15.83 35.524 10.878 35.51 C9.082 35.507 7.287 35.509 5.492 35.517 C3.058 35.527 0.625 35.519 -1.809 35.506 C-2.512 35.513 -3.215 35.521 -3.939 35.528 C-8.252 35.48 -10.954 34.756 -14.394 32.131 C-17.125 27.709 -16.726 22.67 -16.706 17.631 C-16.723 16.79 -16.739 15.948 -16.755 15.081 C-16.759 10.254 -16.5 7.061 -13.394 3.131 C-9.631 -0.631 -5.059 -0.013 0 0 Z " transform="translate(86.3939266204834,506.8685722351074)"/></g>
</svg>
