<?xml version="1.0" encoding="UTF-8"?>
<svg id="Layer_2" data-name="Layer 2" xmlns="http://www.w3.org/2000/svg" viewBox="0 0 72.8 72.98">
  <defs>
    <style>
      .cls-1 {
        fill: #E3BB63;
      }
    </style>
  </defs>
  <g id="Layer_2-2" data-name="Layer 2">
    <g>
      <path class="cls-1" d="M20.41,72.96l-2.28-.31c-.76-.1-1.28-.82-1.15-1.57.42-2.47,1.5-7.89,3.54-13.38,4.88-13.11,11.41-15.86,16.02-15.86,6.49,0,11.68,5.33,15.4,15.83,1.93,5.45,2.94,10.83,3.34,13.29.12.76-.41,1.46-1.17,1.56l-2.28.29c-.73.09-1.4-.41-1.51-1.13-1.22-7.65-5.63-24.82-13.78-24.82-8.67,0-13.28,16.95-14.61,24.98-.12.72-.8,1.22-1.52,1.12Z"/>
      <path class="cls-1" d="M3.29,57.88l-2.05-1.08c-.68-.36-.93-1.21-.54-1.88,3.18-5.52,16.9-27.2,36.04-27.2.16,0,.32,0,.48,0,18.18.34,31.82,21.61,35.01,27.05.39.66.15,1.51-.53,1.88l-2.04,1.1c-.64.35-1.44.13-1.81-.5-2.93-4.91-15.41-24.22-30.73-24.51-.13,0-.25,0-.38,0-16.19,0-28.74,19.66-31.65,24.63-.37.63-1.16.85-1.81.51Z"/>
      <path class="cls-1" d="M70.79,29.85c-.46.56-1.27.66-1.85.24-3.73-2.73-17.17-11.73-32.54-11.91-.17,0-.35,0-.52,0-15.95,0-27.87,8.92-31.23,11.73-.55.46-1.36.41-1.85-.1l-1.61-1.67c-.54-.56-.5-1.47.1-1.97,3.72-3.18,16.68-13,34.58-13,.2,0,.39,0,.59,0,17.11.21,31.5,9.94,35.56,12.95.62.46.73,1.35.24,1.95l-1.46,1.79Z"/>
      <rect class="cls-1" width="72.8" height="5.02" rx="1.36" ry="1.36"/>
    </g>
  </g>
</svg>