<svg xmlns="http://www.w3.org/2000/svg" viewBox="0 0 233 234">
  <g fill="#E3BB63"><path d="M0 0 C3.043 -0.296 5.882 -0.395 8.928 -0.367 C9.396 -0.369 9.396 -0.369 11.764 -0.377 C14.921 -0.385 18.076 -0.37 21.233 -0.356 C23.487 -0.357 25.742 -0.359 27.997 -0.363 C34.135 -0.368 40.273 -0.354 46.412 -0.337 C52.821 -0.322 59.231 -0.323 65.641 -0.322 C76.406 -0.319 87.17 -0.304 97.935 -0.281 C109.022 -0.258 120.108 -0.244 131.195 -0.24 C131.878 -0.24 132.561 -0.24 133.265 -0.24 C134.64 -0.239 136.016 -0.239 137.392 -0.238 C138.07 -0.238 138.749 -0.238 139.448 -0.238 C140.125 -0.237 140.801 -0.237 141.499 -0.237 C152.686 -0.233 163.873 -0.22 175.061 -0.207 C178.889 -0.203 182.717 -0.2 186.546 -0.197 C192.55 -0.193 198.554 -0.182 204.558 -0.168 C206.768 -0.163 208.978 -0.161 211.189 -0.16 C214.192 -0.158 217.196 -0.15 220.199 -0.14 C221.086 -0.141 221.973 -0.142 222.887 -0.143 C228.886 -0.114 228.886 -0.114 230 1 C230.073 3.353 230.084 5.708 230.062 8.062 C230.053 9.353 230.044 10.643 230.035 11.973 C230.029 12.472 230.029 12.472 230 15 C226.644 16.678 222.853 16.144 219.162 16.14 C218.235 16.143 217.309 16.146 216.354 16.149 C213.23 16.158 210.107 16.16 206.983 16.161 C204.751 16.166 202.519 16.171 200.287 16.176 C194.211 16.189 188.134 16.196 182.058 16.2 C178.266 16.203 174.474 16.207 170.682 16.212 C160.188 16.224 149.694 16.234 139.2 16.238 C138.528 16.238 137.856 16.238 137.164 16.238 C136.827 16.238 136.827 16.238 135.123 16.239 C133.758 16.239 132.394 16.24 131.029 16.24 C130.352 16.24 129.675 16.241 128.978 16.241 C118.003 16.245 107.028 16.262 96.053 16.286 C84.793 16.309 73.532 16.322 62.271 16.323 C55.946 16.324 49.621 16.33 43.296 16.348 C37.349 16.364 31.402 16.366 25.456 16.358 C23.269 16.357 21.082 16.361 18.895 16.371 C15.918 16.384 12.942 16.378 9.965 16.367 C9.529 16.372 9.529 16.372 7.319 16.392 C1.43 16.343 1.43 16.343 -0.722 14.625 C-2.49 12.377 -2.367 10.828 -2.312 8 C-2.309 7.134 -2.305 6.268 -2.301 5.375 C-2 3 -2 3 0 0 Z " transform="translate(2.0,1.0)"/>
    <path d="M0 0 C2.391 2.133 2.391 2.133 4 4 C4.096 7.652 2.841 9.229 0.75 12.25 C-2.189 15.189 -2.951 15.914 -7 16 C-9.422 14.658 -11.478 13.32 -13.688 11.688 C-49.546 -13.395 -94.523 -28.126 -138.373 -20.406 C-165.387 -15.145 -189.555 -3.218 -211.156 13.688 C-213 15 -213 15 -215.312 15.625 C-219.606 14.627 -222.57 11.621 -225 8 C-225.469 5.516 -225.469 5.516 -225 3 C-204.053 -21.525 -161.756 -35.652 -130.583 -38.819 C-83.948 -42.085 -37.512 -28.249 0 0 Z " transform="translate(228.0,82.0)"/>
    <path d="M0 0 C5.152 4.283 10.06 8.774 14.895 13.406 C15.395 13.879 15.895 14.352 16.411 14.84 C27.115 24.997 35.796 36.341 44.332 48.344 C44.828 49.041 45.325 49.739 45.836 50.458 C53.191 60.944 53.191 60.944 54.645 66.031 C53.541 69.526 51.259 70.603 48.23 72.488 C45.078 73.727 43.25 74.057 39.895 73.406 C37.974 70.993 36.601 68.893 35.145 66.219 C34.277 64.735 33.405 63.255 32.527 61.777 C32.089 61.036 31.651 60.295 31.2 59.531 C14.082 31.677 -13.645 4.062 -45.977 -4.34 C-66.767 -8.616 -86.511 -2.217 -103.855 9.156 C-110.296 13.543 -116.056 18.495 -121.611 23.947 C-123.15 25.449 -124.714 26.922 -126.281 28.395 C-138.901 40.421 -148.722 54.374 -157.961 69.09 C-160.105 72.406 -160.105 72.406 -162.105 74.406 C-167.066 74.181 -170.32 72.576 -174.105 69.406 C-175.047 67.238 -175.047 67.238 -175.105 64.406 C-173.755 61.691 -172.402 59.346 -170.73 56.844 C-170.273 56.138 -169.815 55.432 -169.344 54.704 C-165.205 48.391 -160.786 42.331 -156.105 36.406 C-155.399 35.506 -154.693 34.607 -153.965 33.68 C-134.683 9.612 -110.128 -13.564 -79.105 -20.594 C-78.137 -20.815 -77.169 -21.037 -76.172 -21.266 C-48.673 -26.67 -21.605 -16.891 0 0 Z " transform="translate(177.10546875,111.59375)"/>
    <path d="M0 0 C23.473 18.758 31.083 53.949 36.52 81.833 C36.748 84.472 36.354 86.615 35.723 89.176 C31.249 90.922 27.525 91.81 22.723 91.176 C19.029 86.764 18.523 81.159 17.473 75.676 C12.762 52.801 5.522 25.685 -14.277 11.176 C-19.492 8.455 -24.679 8.797 -30.277 10.176 C-45.446 16.385 -51.86 31.791 -57.902 45.918 C-61.578 54.923 -63.951 64.21 -66.186 73.664 C-67.596 79.622 -69.22 85.408 -71.277 91.176 C-73.048 91.23 -74.819 91.269 -76.59 91.301 C-77.576 91.324 -78.562 91.347 -79.578 91.371 C-82.277 91.176 -82.277 91.176 -85.277 89.176 C-85.914 81.96 -84.507 75.472 -82.777 68.488 C-82.51 67.4 -82.243 66.313 -81.968 65.192 C-76.854 45.071 -69.884 25.18 -56.277 9.176 C-55.675 8.366 -55.073 7.557 -54.453 6.723 C-40.049 -10.138 -17.863 -12.135 0 0 Z " transform="translate(140.27734375,141.82421875)"/></g>
</svg>
