<svg xmlns="http://www.w3.org/2000/svg" viewBox="0 0 177 233">
  <g fill="#E3BB63"><path d="M0 0 C0.485 0.002 0.485 0.002 2.941 0.012 C5.438 0.312 5.438 0.312 7.438 2.312 C7.716 4.565 7.716 4.565 7.756 7.405 C7.776 8.466 7.796 9.527 7.817 10.62 C7.828 11.769 7.84 12.918 7.852 14.102 C7.871 15.275 7.89 16.449 7.91 17.658 C7.97 21.418 8.016 25.177 8.062 28.938 C8.101 31.482 8.14 34.026 8.18 36.57 C8.276 42.818 8.361 49.065 8.438 55.312 C26.787 55.359 45.137 55.394 63.486 55.416 C72.006 55.426 80.525 55.441 89.045 55.463 C96.469 55.483 103.892 55.496 111.316 55.501 C115.248 55.503 119.181 55.509 123.113 55.524 C126.812 55.537 130.51 55.542 134.209 55.539 C136.219 55.54 138.23 55.55 140.241 55.561 C141.43 55.559 142.619 55.556 143.844 55.553 C144.363 55.554 144.363 55.554 146.989 55.559 C149.438 55.312 149.438 55.312 151.438 53.312 C151.703 51.149 151.703 51.149 151.725 48.436 C151.738 47.421 151.751 46.407 151.765 45.361 C151.771 44.262 151.776 43.164 151.781 42.031 C151.789 41.469 151.789 41.469 151.826 38.624 C151.872 35.02 151.906 31.416 151.938 27.812 C151.978 23.073 152.032 18.333 152.094 13.594 C152.099 12.495 152.104 11.396 152.11 10.264 C152.123 9.249 152.137 8.235 152.15 7.189 C152.158 6.294 152.165 5.398 152.172 4.476 C152.438 2.313 152.438 2.313 154.438 0.312 C157.188 0.012 157.188 0.012 160.438 0 C161.51 -0.017 162.583 -0.034 163.688 -0.051 C164.141 0.009 164.141 0.009 166.438 0.312 C168.605 3.564 168.688 4.454 168.691 8.209 C168.694 8.713 168.694 8.713 168.709 11.268 C168.707 11.821 168.707 11.821 168.696 14.621 C168.698 15.204 168.698 15.204 168.707 18.155 C168.716 22.02 168.71 25.885 168.703 29.75 C168.704 32.429 168.706 35.108 168.709 37.787 C168.713 43.406 168.708 49.025 168.698 54.644 C168.687 61.141 168.691 67.639 168.702 74.137 C168.711 79.714 168.712 85.291 168.707 90.868 C168.704 94.2 168.704 97.532 168.71 100.863 C168.715 104.577 168.707 108.29 168.696 112.004 C168.7 113.11 168.704 114.217 168.709 115.357 C168.703 116.367 168.697 117.376 168.691 118.416 C168.691 118.855 168.691 118.855 168.689 121.078 C168.438 123.312 168.438 123.312 166.438 126.312 C163.688 126.676 163.688 126.676 160.438 126.625 C159.901 126.623 159.901 126.623 157.188 126.613 C154.438 126.312 154.438 126.312 152.438 124.312 C152.166 122.181 152.166 122.181 152.135 119.511 C152.118 118.514 152.101 117.516 152.084 116.488 C152.08 115.948 152.08 115.948 152.059 113.215 C152.042 112.11 152.025 111.006 152.007 109.868 C151.954 106.328 151.914 102.789 151.875 99.25 C151.831 95.707 151.785 92.164 151.732 88.622 C151.7 86.414 151.673 84.206 151.652 81.998 C151.638 81.003 151.625 80.009 151.611 78.984 C151.602 78.104 151.592 77.224 151.582 76.317 C151.438 74.312 151.438 74.312 150.438 73.312 C148.535 73.219 146.629 73.195 144.724 73.199 C144.114 73.199 144.114 73.199 141.024 73.199 C139.681 73.204 138.339 73.21 136.996 73.215 C135.63 73.217 134.264 73.218 132.897 73.219 C129.295 73.223 125.694 73.233 122.092 73.244 C118.418 73.254 114.745 73.259 111.072 73.264 C103.861 73.274 96.649 73.291 89.438 73.312 C88.34 76.606 88.307 79.038 88.299 82.506 C88.294 83.803 88.289 85.1 88.283 86.437 C88.282 87.877 88.281 89.318 88.28 90.758 C88.275 92.272 88.27 93.787 88.264 95.301 C88.253 98.564 88.245 101.826 88.238 105.089 C88.228 110.244 88.207 115.399 88.185 120.554 C88.123 135.213 88.069 149.871 88.036 164.531 C88.018 172.625 87.989 180.72 87.948 188.815 C87.927 193.101 87.912 197.387 87.909 201.673 C87.907 205.7 87.891 209.728 87.865 213.755 C87.858 215.236 87.856 216.718 87.859 218.199 C87.863 220.214 87.847 222.23 87.829 224.246 C87.826 225.376 87.823 226.506 87.819 227.67 C87.693 228.542 87.567 229.414 87.438 230.312 C84.315 232.394 83.505 232.586 79.938 232.562 C79.551 232.565 79.551 232.565 77.594 232.578 C75.438 232.312 75.438 232.312 72.438 230.312 C72.056 227.651 72.056 227.651 72.046 224.201 C72.034 222.897 72.023 221.593 72.012 220.249 C72.015 218.796 72.018 217.342 72.021 215.889 C72.014 214.365 72.005 212.84 71.995 211.316 C71.972 207.17 71.967 203.023 71.964 198.877 C71.959 194.544 71.935 190.211 71.914 185.879 C71.875 177.668 71.851 169.458 71.833 161.247 C71.799 146.538 71.742 131.829 71.679 117.119 C71.657 111.953 71.642 106.787 71.632 101.621 C71.625 98.412 71.614 95.203 71.602 91.994 C71.598 90.502 71.595 89.01 71.594 87.517 C71.592 85.486 71.584 83.455 71.576 81.424 C71.573 80.285 71.57 79.147 71.568 77.974 C71.438 75.312 71.438 75.312 70.438 73.312 C50.307 73.312 30.177 73.312 9.438 73.312 C8.228 75.731 8.294 77.304 8.264 80.006 C8.25 80.98 8.237 81.955 8.223 82.959 C8.213 84.014 8.202 85.069 8.191 86.156 C8.158 88.374 8.125 90.591 8.092 92.809 C8.044 96.318 8 99.827 7.961 103.336 C7.921 106.714 7.87 110.091 7.816 113.469 C7.808 114.524 7.8 115.579 7.791 116.666 C7.774 117.641 7.758 118.615 7.74 119.619 C7.73 120.479 7.72 121.339 7.709 122.225 C7.438 124.312 7.438 124.312 5.438 126.312 C2.687 126.613 2.687 126.613 -0.562 126.625 C-1.635 126.642 -2.707 126.659 -3.812 126.676 C-4.72 126.556 -5.628 126.436 -6.562 126.312 C-8.729 123.063 -8.814 122.169 -8.823 118.416 C-8.83 117.407 -8.837 116.397 -8.845 115.357 C-8.842 114.251 -8.84 113.144 -8.837 112.004 C-8.842 110.838 -8.847 109.672 -8.853 108.47 C-8.867 104.605 -8.866 100.74 -8.863 96.875 C-8.866 94.873 -8.869 92.871 -8.873 90.868 C-8.884 84.573 -8.884 78.277 -8.878 71.981 C-8.872 65.484 -8.884 58.986 -8.906 52.488 C-8.923 46.911 -8.929 41.334 -8.926 35.757 C-8.924 32.425 -8.928 29.093 -8.941 25.762 C-8.953 22.048 -8.946 18.335 -8.935 14.621 C-8.939 14.068 -8.939 14.068 -8.958 11.268 C-8.951 10.258 -8.944 9.249 -8.937 8.209 C-8.937 7.33 -8.937 6.452 -8.937 5.547 C-8.063 0.331 -4.723 -0.082 0 0 Z " transform="translate(8.5625,0.6875)"/></g>
</svg>
