<?xml version="1.0" encoding="UTF-8"?>
<svg id="Layer_2" data-name="Layer 2" xmlns="http://www.w3.org/2000/svg" viewBox="0 0 73.99 73.98">
  <defs>
    <style>
      .cls-1 {
        fill: #fff;
      }
    </style>
  </defs>
  <g id="Layer_2-2" data-name="Layer 2">
    <g>
      <rect class="cls-1" x=".06" y="68.97" width="73.92" height="5.01" rx="1.51" ry="1.51"/>
      <path class="cls-1" d="M1.51,40.1h15.87v5.04c0,2.51-.95,4.24-2.9,5.3-1.45.78-2.99.94-3.37.97-.04,0-.07,0-.11,0H1.5c-.78,0-1.41.63-1.41,1.41v2.28c0,.78.63,1.41,1.41,1.41h9.67c3.91-.11,11.3-2.62,11.3-11.37v-5.04h29.13v5.61c0,8.75,7.39,11.26,11.3,11.37h9.67c.78,0,1.41-.63,1.41-1.41v-2.28c0-.78-.63-1.41-1.41-1.41h-9.49s-.07,0-.11,0c-.38-.03-1.91-.19-3.37-.97-1.95-1.05-2.9-2.79-2.9-5.3v-5.61h15.73c.83,0,1.51-.67,1.51-1.51v-2c0-.83-.67-1.51-1.51-1.51h-15.73V1.97c0-.78-.63-1.41-1.41-1.41h-2.28c-.78,0-1.41.63-1.41,1.41v33.11h-29.13V1.41c0-.78-.63-1.41-1.41-1.41h-2.28c-.78,0-1.41.63-1.41,1.41v33.68H1.51c-.83,0-1.51.67-1.51,1.51v2c0,.83.67,1.51,1.51,1.51Z"/>
    </g>
  </g>
</svg>