<?xml version="1.0" encoding="UTF-8"?>
<svg id="Layer_2" data-name="Layer 2" xmlns="http://www.w3.org/2000/svg" viewBox="0 0 57.47 72.41">
  <defs>
    <style>
      .cls-1 {
        fill: #fff;
      }
    </style>
  </defs>
  <g id="Layer_1-2" data-name="Layer 1">
    <g>
      <path class="cls-1" d="M29.41,49.91h-1.61c-.7,0-1.27-.52-1.27-1.16V1.16c0-.64.57-1.16,1.27-1.16h1.61c.7,0,1.27.52,1.27,1.16v47.58c0,.64-.57,1.16-1.27,1.16Z"/>
      <path class="cls-1" d="M45.91,33.69h-5.15c-.41,0-.75-.33-.75-.74l-.02-6.49c0-.26.14-.51.37-.64l16.37-9.7c.63-.38.84-1.19.46-1.81l-.8-1.31c-.38-.63-1.2-.83-1.83-.45l-13.46,7.97c-.5.29-1.13-.06-1.13-.64l-.02-4.96c0-.41.21-.79.56-1.01L56.63,3.86c.56-.35.73-1.08.37-1.64l-.97-1.52c-.35-.55-1.1-.72-1.66-.37l-18.09,11.28c-.35.22-.56.6-.56,1.01l.07,21.08h-.02v3.41c0,.41.33.75.75.75h9.39c4.09,0,7.41,3.32,7.41,7.41v15.59c0,4.09-3.32,7.41-7.41,7.41H11.57c-4.09,0-7.41-3.32-7.41-7.41v-15.59c0-4.09,3.32-7.41,7.41-7.41h9.26c.41,0,.75-.33.75-.75v-3.01s0-.07,0-.11c0-.06.01-.11.01-.17l.07-21.19c0-.41-.21-.79-.56-1.01L3.01.33C2.45-.02,1.7.14,1.35.7l-.97,1.52c-.35.55-.19,1.29.37,1.64l16.11,10.05c.35.22.56.6.56,1.01l-.02,4.96c0,.58-.63.93-1.13.64L2.83,12.53c-.63-.38-1.45-.17-1.83.45l-.8,1.31c-.38.63-.17,1.44.46,1.81l16.37,9.7c.23.13.37.38.37.64l-.02,6.49c0,.41-.34.74-.75.74h-5.06c-6.39,0-11.57,5.18-11.57,11.57v15.59c0,6.39,5.18,11.57,11.57,11.57h34.34c6.39,0,11.57-5.18,11.57-11.57v-15.59c0-6.39-5.18-11.57-11.57-11.57Z"/>
    </g>
  </g>
</svg>