<?xml version="1.0" encoding="UTF-8"?>
<svg id="Layer_2" data-name="Layer 2" xmlns="http://www.w3.org/2000/svg" viewBox="0 0 62.25 72.82">
  <defs>
    <style>
      .cls-1 {
        fill: #fff;
      }
    </style>
  </defs>
  <g id="Layer_1-2" data-name="Layer 1">
    <path class="cls-1" d="M29.09,38.81L2.47,54.09c-.16.07-.31.09-.48.04-.4-.11-2.05-2.94-1.99-3.37.02-.15.1-.28.21-.38l28.81-16.77.08-33.06c.02-.18.12-.36.28-.44.33-.16,3.5-.13,3.81.06.08.05.24.32.24.37v47.68l26.19-15.13c.38-.11.73-.17,1.03.14.26.26,1.6,2.72,1.6,3.05,0,.21-.05.38-.22.51l-28.59,16.49v12.01l26.05-14.98c1.31-.71,2.88,2.64,2.53,3.4l-32.92,19.11v-34.01Z"/>
  </g>
</svg>