<?xml version="1.0" encoding="UTF-8"?>
<svg id="Layer_2" data-name="Layer 2" xmlns="http://www.w3.org/2000/svg" viewBox="0 0 72.87 72.75">
  <defs>
    <style>
      .cls-1 {
        fill: #fff;
      }
    </style>
  </defs>
  <g id="Layer_1-2" data-name="Layer 1">
    <path class="cls-1" d="M64.94,60.66c-5.03-4.34-13.54-9.46-26.04-10.08v-11.49h32.4c.82,0,1.48-.66,1.48-1.48v-1.97c0-.82-.66-1.48-1.48-1.48h-32.4v-11.89c12.5-.61,21.02-5.74,26.05-10.08,4.06-3.5,6.53-7.02,7.69-8.91.46-.75.17-1.73-.61-2.12l-1.86-.92c-.69-.34-1.52-.1-1.93.55-2.36,3.77-11.12,15.43-29.34,16.42V1.33c0-.74-.6-1.33-1.33-1.33h-2.27c-.74,0-1.33.6-1.33,1.33v15.88c-8.77-.45-16.37-3.37-22.61-8.7C7.81,5.48,5.64,2.41,4.63.79,4.22.14,3.39-.1,2.7.24l-1.87.92C.05,1.55-.24,2.53.22,3.27c1.16,1.89,3.61,5.41,7.66,8.91,5.03,4.35,13.55,9.49,26.09,10.09v11.89H1.56c-.82,0-1.48.66-1.48,1.48v1.97c0,.82.66,1.48,1.48,1.48h32.4v11.48c-12.53.6-21.04,5.73-26.07,10.08-4.05,3.5-6.5,7.02-7.66,8.91-.46.75-.17,1.72.62,2.11l1.86.92c.69.34,1.52.1,1.93-.55,1.01-1.62,3.18-4.68,6.72-7.71,6.23-5.33,13.83-8.24,22.59-8.69v15.73c0,.74.6,1.33,1.33,1.33h2.27c.74,0,1.33-.6,1.33-1.33v-15.73c8.74.46,16.33,3.38,22.57,8.69,3.55,3.03,5.74,6.09,6.75,7.71.41.65,1.24.89,1.93.55l1.86-.92c.79-.39,1.07-1.37.61-2.11-1.16-1.89-3.63-5.4-7.69-8.9Z"/>
  </g>
</svg>