<?xml version="1.0" encoding="UTF-8"?>
<svg id="Layer_2" data-name="Layer 2" xmlns="http://www.w3.org/2000/svg" viewBox="0 0 54.77 72">
  <defs>
    <style>
      .cls-1 {
        fill: #fff;
      }
    </style>
  </defs>
  <g id="Layer_1-2" data-name="Layer 1">
    <path class="cls-1" d="M53.3,0h-1.95c-.81,0-1.47.66-1.47,1.47v15.95H4.89V1.47c0-.81-.66-1.47-1.47-1.47h-1.95C.66,0,0,.66,0,1.47v36.37c0,.81.66,1.47,1.47,1.47h1.95c.81,0,1.47-.66,1.47-1.47v-15.53h20.04v48.37c0,.73.59,1.32,1.32,1.32h2.25c.73,0,1.32-.59,1.32-1.32V22.31h20.06v15.53c0,.81.66,1.47,1.47,1.47h1.95c.81,0,1.47-.66,1.47-1.47V1.47c0-.81-.66-1.47-1.47-1.47Z"/>
  </g>
</svg>