<?xml version="1.0" encoding="UTF-8"?>
<svg id="Layer_2" data-name="Layer 2" xmlns="http://www.w3.org/2000/svg" viewBox="0 0 72 72">
  <defs>
    <style>
      .cls-1 {
        fill: #fff;
      }
    </style>
  </defs>
  <g id="Layer_2-2" data-name="Layer 2">
    <g>
      <path class="cls-1" d="M70.25,17.19h-13.59c-.97,0-1.75-.78-1.75-1.75V1.85c0-.97-.78-1.75-1.75-1.75h-1.38c-.97,0-1.75.78-1.75,1.75v13.59c0,.97-.78,1.75-1.75,1.75h-24.69c-.97,0-1.75-.78-1.75-1.75V1.75c0-.97-.78-1.75-1.75-1.75h-1.38c-.97,0-1.75.78-1.75,1.75v13.69c0,.97-.78,1.75-1.75,1.75H1.75c-.97,0-1.75.78-1.75,1.75v1.47c0,.97.78,1.75,1.75,1.75h13.47c.97,0,1.75.78,1.75,1.75v42.01c0,3.35,2.59,6.07,5.78,6.07h26.38c3.19,0,5.78-2.73,5.78-6.07V23.91c0-.97.78-1.75,1.75-1.75h13.59c.97,0,1.75-.78,1.75-1.75v-1.47c0-.97-.78-1.75-1.75-1.75ZM50.03,65.93c0,.61-.4,1.1-.9,1.1h-26.38c-.5,0-.9-.5-.9-1.1V23.91c0-.97.78-1.75,1.75-1.75h24.69c.97,0,1.75.78,1.75,1.75v42.01Z"/>
      <path class="cls-1" d="M44.96,34.1h-5.09c-.82,0-1.49-.67-1.49-1.49v-5c0-.82-.67-1.49-1.49-1.49h-1.89c-.82,0-1.49.67-1.49,1.49v5c0,.82-.67,1.49-1.49,1.49h-4.99c-.82,0-1.49.67-1.49,1.49v1.89c0,.82.67,1.49,1.49,1.49h4.99c.82,0,1.49.67,1.49,1.49v5.1c0,.82.67,1.49,1.49,1.49h1.89c.82,0,1.49-.67,1.49-1.49v-5.1c0-.82.67-1.49,1.49-1.49h5.09c.82,0,1.49-.67,1.49-1.49v-1.89c0-.82-.67-1.49-1.49-1.49Z"/>
    </g>
  </g>
</svg>