<svg xmlns="http://www.w3.org/2000/svg" viewBox="0 0 307.38 307.38">
  <!-- Order of Fire — official mark (bvll), Earth (for use on light / parchment grounds) -->
  <path fill="#4A2F1B" d="M269.86,187.76c-6.42-2.86-17.49-7.12-29.51-8.75-.43-.06-.76-.42-.76-.86.03-13.38-2.18-35.2-8.69-47.21-.83-1.75-.74-3.79.23-5.47,2.67-5.6,14.59-24.09,4.33-21.19-3.31,1.31-7.7,3.19-12.44,5.63-2.43,1.25-5.41.63-7.17-1.46-22.37-20.94-32.01-51.13-35.56-67.39-.97-2.61-4.73-2.42-5.43.28-.64,3.06-.03,22.27,5.91,45.06,6.89,22.21,29.96,44.48,30.12,79.89.99,16.6-21.22,11.27-31.18,12.07-6.34,0-11.57-4.96-11.91-11.29-.51-9.44-1.34-18.86-2.51-28.25h0c-.42-8.59-5.5-22.8-11.57-25.28-6.08,2.49-11.14,16.66-11.57,25.28h0c-1.17,9.39-2,18.81-2.51,28.25-.34,6.33-5.57,11.29-11.91,11.29-9.96-.81-32.17,4.55-31.19-12.07,3.9-55.47,39.48-65.42,36.04-124.95-1.24-3.49-5.42-2.42-5.92,1.11-2.41,14.81-14.41,47.09-35.06,66-1.76,2.09-4.74,2.72-7.17,1.46-4.74-2.44-9.13-4.33-12.44-5.63-10.32-2.81,1.71,15.59,4.33,21.19.97,1.67,1.06,3.72.23,5.47-6.51,11.99-8.72,33.86-8.69,47.21,0,.44-.33.8-.76.86-12.03,1.63-23.1,5.89-29.51,8.75-10.65,5.77,20.55,12.51,27.96,14.02,3.48.56,6.47,2.75,8.06,5.89,2.1,4.14,4.61,7.75,7.22,11.9,11.94,14.8,23.96,18.11,23.96,18.11,0,0,7.88,1.2,9.15-1.28,1.21-2.36.16-3.86-1.39-5.11-1-.81-11.15-10.38-12.27-21.88-.58-5.6,2.68-6.66,6.52-6.66,10.09.85,32.17-4.53,32.93,11.33,1.71,16.92.33,43.52,13.97,54.13,5.94-3.69,11.1-16.28,11.61-26.31,1.08-9.29,1.89-18.56,2.41-27.82.36-6.36,5.61-11.33,11.98-11.33h20.95c17.7.22-5.07,30.01-5.75,28.54-1.55,1.25-2.6,2.75-1.39,5.11,1.27,2.48,9.15,1.28,9.15,1.28,0,0,12.02-3.31,23.96-18.11,2.62-4.14,5.12-7.76,7.22-11.9,1.59-3.14,4.59-5.32,8.06-5.89,7.93-1.62,38.36-8.19,27.96-14.02Z"/>
</svg>
